<svg width="18" height="22" viewBox="0 0 18 22" fill="none" xmlns="http://www.w3.org/2000/svg">
<path d="M17.374 7.39307C16.6904 7.62093 16.1208 8.15804 15.665 9.00439C15.2093 9.8182 14.9814 10.632 14.9814 11.4458C14.9814 12.4549 15.2419 13.3989 15.7627 14.2778C16.2835 15.1242 16.9834 15.6613 17.8623 15.8892C17.6019 16.7681 17.1624 17.6795 16.5439 18.6235C15.958 19.535 15.3558 20.2186 14.7373 20.6743C14.2165 21.0324 13.5654 21.2114 12.7842 21.2114C12.2633 21.2114 11.6611 21.0812 10.9775 20.8208C10.3916 20.5278 9.88704 20.3813 9.46387 20.3813C9.13835 20.3813 8.4873 20.5767 7.51074 20.9673C6.9248 21.13 6.50163 21.2114 6.24121 21.2114C5.45996 21.2114 4.66243 20.8859 3.84863 20.2349C2.67676 19.1281 1.7653 17.8097 1.11426 16.2798C0.463216 14.7498 0.137695 13.1548 0.137695 11.4946C0.137695 9.76937 0.625977 8.2557 1.60254 6.95361C2.61165 5.61898 3.88118 4.95166 5.41113 4.95166C6.25749 4.95166 7.03874 5.1307 7.75488 5.48877C8.30827 5.84684 8.86165 6.02588 9.41504 6.02588C9.93587 6.02588 10.4404 5.92822 10.9287 5.73291C12.1982 5.21208 13.0446 4.95166 13.4678 4.95166C14.6071 4.95166 15.5999 5.32601 16.4463 6.07471C16.8369 6.46533 17.1462 6.90479 17.374 7.39307ZM8.87793 5.09814C8.87793 4.05648 9.28483 3.03109 10.0986 2.02197C10.9124 1.14307 11.9053 0.605957 13.0771 0.410645C13.0771 1.64762 12.6865 2.73812 11.9053 3.68213C11.0264 4.62614 10.0173 5.09814 8.87793 5.09814Z" fill="#00AA71"/>
</svg>
