<svg width="30" height="30" viewBox="0 0 30 30" fill="none" xmlns="http://www.w3.org/2000/svg">
<g clip-path="url(#clip0)">
<path d="M19.1381 10.869C18.7501 10.869 18.4355 11.1836 18.4355 11.5716V24.8503C18.4355 25.2381 18.7501 25.5529 19.1381 25.5529C19.5262 25.5529 19.8407 25.2381 19.8407 24.8503V11.5716C19.8407 11.1836 19.5262 10.869 19.1381 10.869Z" fill="#01B97B"/>
<path d="M10.8476 10.869C10.4595 10.869 10.145 11.1836 10.145 11.5716V24.8503C10.145 25.2381 10.4595 25.5529 10.8476 25.5529C11.2357 25.5529 11.5502 25.2381 11.5502 24.8503V11.5716C11.5502 11.1836 11.2357 10.869 10.8476 10.869Z" fill="#01B97B"/>
<path d="M4.80548 8.9312V26.2411C4.80548 27.2643 5.18065 28.2251 5.83602 28.9145C6.48837 29.6058 7.39623 29.9983 8.34635 29.9999H21.6393C22.5897 29.9983 23.4975 29.6058 24.1496 28.9145C24.805 28.2251 25.1801 27.2643 25.1801 26.2411V8.9312C26.4829 8.5854 27.3271 7.3268 27.1528 5.98999C26.9783 4.65345 25.8396 3.65366 24.4916 3.65338H20.8944V2.77517C20.8985 2.03664 20.6065 1.32748 20.0837 0.805765C19.5609 0.284324 18.8507 -0.00603698 18.1121 7.59712e-07H11.8735C11.135 -0.00603698 10.4247 0.284324 9.90189 0.805765C9.37908 1.32748 9.08707 2.03664 9.09119 2.77517V3.65338H5.49406C4.146 3.65366 3.00733 4.65345 2.83279 5.98999C2.65852 7.3268 3.5027 8.5854 4.80548 8.9312ZM21.6393 28.5948H8.34635C7.14511 28.5948 6.21063 27.5629 6.21063 26.2411V8.99295H23.775V26.2411C23.775 27.5629 22.8405 28.5948 21.6393 28.5948ZM10.4963 2.77517C10.4917 2.40934 10.6355 2.05722 10.8951 1.79897C11.1544 1.54072 11.5074 1.39884 11.8735 1.40515H18.1121C18.4782 1.39884 18.8312 1.54072 19.0905 1.79897C19.3501 2.05695 19.4939 2.40934 19.4893 2.77517V3.65338H10.4963V2.77517ZM5.49406 5.05853H24.4916C25.19 5.05853 25.7562 5.62471 25.7562 6.32317C25.7562 7.02162 25.19 7.5878 24.4916 7.5878H5.49406C4.7956 7.5878 4.22943 7.02162 4.22943 6.32317C4.22943 5.62471 4.7956 5.05853 5.49406 5.05853Z" fill="#01B97B"/>
<path d="M14.9931 10.869C14.605 10.869 14.2905 11.1836 14.2905 11.5716V24.8503C14.2905 25.2381 14.605 25.5529 14.9931 25.5529C15.3812 25.5529 15.6957 25.2381 15.6957 24.8503V11.5716C15.6957 11.1836 15.3812 10.869 14.9931 10.869Z" fill="#01B97B"/>
</g>
<defs>
<clipPath id="clip0">
<rect width="30" height="30" fill="white"/>
</clipPath>
</defs>
</svg>
