<svg width="26" height="30" viewBox="0 0 26 30" fill="none" xmlns="http://www.w3.org/2000/svg">
<path d="M2.80548 8.9312V26.2411C2.80548 27.2643 3.18065 28.2251 3.83602 28.9145C4.48837 29.6058 5.39623 29.9983 6.34635 29.9999H19.6393C20.5897 29.9983 21.4975 29.6058 22.1496 28.9145C22.805 28.2251 23.1801 27.2643 23.1801 26.2411V8.9312C24.4829 8.5854 25.3271 7.3268 25.1528 5.98999C24.9783 4.65345 23.8396 3.65366 22.4916 3.65338H18.8944V2.77517C18.8985 2.03664 18.6065 1.32748 18.0837 0.805765C17.5609 0.284324 16.8507 -0.00603698 16.1121 7.59712e-07H9.87349C9.13496 -0.00603698 8.4247 0.284324 7.90189 0.805765C7.37908 1.32748 7.08707 2.03664 7.09119 2.77517V3.65338H3.49406C2.146 3.65366 1.00733 4.65345 0.832787 5.98999C0.658516 7.3268 1.5027 8.5854 2.80548 8.9312ZM19.6393 28.5948H6.34635C5.14511 28.5948 4.21063 27.5629 4.21063 26.2411V8.99295H21.775V26.2411C21.775 27.5629 20.8405 28.5948 19.6393 28.5948ZM8.49633 2.77517C8.49167 2.40934 8.63548 2.05722 8.8951 1.79897C9.15445 1.54072 9.50738 1.39884 9.87349 1.40515H16.1121C16.4782 1.39884 16.8312 1.54072 17.0905 1.79897C17.3501 2.05695 17.4939 2.40934 17.4893 2.77517V3.65338H8.49633V2.77517ZM3.49406 5.05853H22.4916C23.19 5.05853 23.7562 5.62471 23.7562 6.32317C23.7562 7.02162 23.19 7.5878 22.4916 7.5878H3.49406C2.7956 7.5878 2.22943 7.02162 2.22943 6.32317C2.22943 5.62471 2.7956 5.05853 3.49406 5.05853Z" fill="#01B97B"/>
</svg>
