<svg width="70" height="74" viewBox="0 0 70 74" fill="none" xmlns="http://www.w3.org/2000/svg">
<path d="M39.1345 25.1485C38.479 25.1485 37.9484 24.6178 37.9484 23.963V20.1608H28.4613V23.8157C28.4613 24.4706 27.9307 25.0012 27.2752 25.0012C26.6203 25.0012 26.0897 24.4706 26.0897 23.8157V18.9747C26.0897 18.3192 26.6203 17.7885 27.2752 17.7885H39.1345C39.7894 17.7885 40.32 18.3192 40.32 18.9747V23.963C40.32 24.6178 39.7894 25.1485 39.1345 25.1485Z" fill="url(#paint0_linear)"/>
<path d="M16.8191 45.065H8.30096C7.64613 45.065 7.11549 44.5344 7.11549 43.8788V32.0198C7.11549 31.3643 7.64613 30.8337 8.30096 30.8337H18.0418C18.6967 30.8337 19.2273 31.3643 19.2273 32.0198C19.2273 32.6747 18.6967 33.206 18.0418 33.206H9.4871V42.6933H16.8191C17.4739 42.6933 18.0045 43.224 18.0045 43.8788C18.0045 44.5344 17.4739 45.065 16.8191 45.065Z" fill="url(#paint1_linear)"/>
<path d="M68.7813 50.9945H56.9226C56.2678 50.9945 55.7371 50.4639 55.7371 49.8083V45.065H49.3253C48.6698 45.065 48.1392 44.5344 48.1392 43.8788C48.1392 43.224 48.6698 42.6934 49.3253 42.6934H56.9219C57.5774 42.6934 58.108 43.224 58.108 43.8788V48.6229H67.5951V37.9473C67.5951 35.3334 65.4685 33.206 62.8553 33.206H47.939C47.2835 33.206 46.7528 32.6747 46.7528 32.0198C46.7528 31.3643 47.2835 30.8337 47.939 30.8337H62.8553C66.7761 30.8337 69.9667 34.0244 69.9667 37.9459V49.8083C69.9674 50.4639 69.4368 50.9945 68.7813 50.9945Z" fill="url(#paint2_linear)"/>
<path d="M33.0715 56.9993C23.4555 56.9993 15.6329 49.1766 15.6329 39.559C15.6329 29.9434 23.4555 22.1206 33.0715 22.1206C42.6882 22.1206 50.5114 29.9434 50.5114 39.559C50.5114 49.1759 42.6882 56.9993 33.0715 56.9993ZM33.0715 24.4916C24.7631 24.4916 18.0045 31.2503 18.0045 39.559C18.0045 47.8669 24.7631 54.627 33.0715 54.627C41.3799 54.627 48.1392 47.8669 48.1392 39.559C48.1392 31.2503 41.3799 24.4916 33.0715 24.4916Z" fill="url(#paint3_linear)"/>
<path d="M33.0715 51.4146C26.5355 51.4146 21.2176 46.0965 21.2176 39.559C21.2176 33.0228 26.5355 27.7047 33.0715 27.7047C39.6089 27.7047 44.9268 33.0228 44.9268 39.559C44.9268 40.2145 44.3962 40.7451 43.7407 40.7451C43.0858 40.7451 42.5552 40.2145 42.5552 39.559C42.5552 34.3304 38.2999 30.0764 33.0715 30.0764C27.8431 30.0764 23.5892 34.3304 23.5892 39.559C23.5892 44.7882 27.8431 49.0429 33.0715 49.0429C33.727 49.0429 34.2576 49.5735 34.2576 50.2291C34.2576 50.8839 33.727 51.4146 33.0715 51.4146Z" fill="url(#paint4_linear)"/>
<path d="M4.82667 50.9945H4.65975C2.09 50.9945 0 48.9045 0 46.3347V31.9364C0 29.3666 2.09 27.2758 4.65975 27.2758H4.82667C7.39642 27.2758 9.48642 29.3666 9.48642 31.9364V46.334C9.4871 48.9038 7.39642 50.9945 4.82667 50.9945ZM4.65975 29.6482C3.3976 29.6482 2.3716 30.6735 2.3716 31.9364V46.334C2.3716 47.5961 3.3976 48.6222 4.65975 48.6222H4.82667C6.08881 48.6222 7.11481 47.5961 7.11481 46.334V31.9364C7.11481 30.6735 6.08881 29.6482 4.82667 29.6482H4.65975Z" fill="url(#paint5_linear)"/>
<path d="M42.0992 8.30116H23.125C20.8369 8.30116 18.9742 6.43912 18.9742 4.15092C18.9742 1.86272 20.8369 0 23.125 0H42.0992C44.3873 0 46.25 1.86272 46.25 4.15092C46.25 6.43912 44.3873 8.30116 42.0992 8.30116ZM23.125 2.37166C22.1445 2.37166 21.3458 3.16968 21.3458 4.15092C21.3458 5.13148 22.1445 5.9295 23.125 5.9295H42.0992C43.0797 5.9295 43.8777 5.13148 43.8777 4.15092C43.8777 3.16968 43.0797 2.37166 42.0992 2.37166H23.125Z" fill="url(#paint6_linear)"/>
<path d="M35.5768 20.1608H30.8329C30.1781 20.1608 29.6474 19.6302 29.6474 18.9747V7.11567C29.6474 6.46016 30.1781 5.9295 30.8329 5.9295H35.5768C36.2316 5.9295 36.7629 6.46016 36.7629 7.11567V18.9747C36.7629 19.6302 36.2316 20.1608 35.5768 20.1608ZM32.019 17.7885H34.3906V8.30116H32.019V17.7885Z" fill="url(#paint7_linear)"/>
<path d="M63.445 74C59.8303 74 56.89 71.0597 56.89 67.4448C56.89 64.2358 61.8687 56.1043 62.4366 55.1882C62.8696 54.4886 64.0211 54.4886 64.4534 55.1882C65.0213 56.1043 70 64.2358 70 67.4448C69.9993 71.0597 67.0591 74 63.445 74ZM63.445 58.119C61.5308 61.4081 59.2616 65.8312 59.2616 67.4455C59.2616 69.7527 61.1379 71.629 63.445 71.629C65.7522 71.629 67.6284 69.7527 67.6284 67.4455C67.6277 65.8312 65.3593 61.4081 63.445 58.119Z" fill="url(#paint8_linear)"/>
<path d="M63.4185 70.5623C62.763 70.5623 62.2324 70.0316 62.2324 69.3761C62.2324 68.7213 62.763 68.1906 63.4185 68.1906C63.8135 68.1906 64.1338 67.8696 64.1338 67.4761C64.1338 66.8205 64.6651 66.2899 65.3199 66.2899C65.9754 66.2899 66.506 66.8205 66.506 67.4761C66.506 69.1773 65.1211 70.5623 63.4185 70.5623Z" fill="url(#paint9_linear)"/>
<path d="M67.5958 45.065H55.7371C55.0816 45.065 54.551 44.5344 54.551 43.8788C54.551 43.224 55.0816 42.6934 55.7371 42.6934H67.5958C68.2506 42.6934 68.7813 43.224 68.7813 43.8788C68.7813 44.5344 68.2506 45.065 67.5958 45.065Z" fill="url(#paint10_linear)"/>
<defs>
<linearGradient id="paint0_linear" x1="22.5565" y1="3.30824" x2="59.9053" y2="69.8205" gradientUnits="userSpaceOnUse">
<stop stop-color="#00D561"/>
<stop offset="1" stop-color="#00AA71"/>
</linearGradient>
<linearGradient id="paint1_linear" x1="22.5565" y1="3.30824" x2="59.9053" y2="69.8205" gradientUnits="userSpaceOnUse">
<stop stop-color="#00D561"/>
<stop offset="1" stop-color="#00AA71"/>
</linearGradient>
<linearGradient id="paint2_linear" x1="22.5565" y1="3.30824" x2="59.9053" y2="69.8205" gradientUnits="userSpaceOnUse">
<stop stop-color="#00D561"/>
<stop offset="1" stop-color="#00AA71"/>
</linearGradient>
<linearGradient id="paint3_linear" x1="22.5565" y1="3.30824" x2="59.9053" y2="69.8205" gradientUnits="userSpaceOnUse">
<stop stop-color="#00D561"/>
<stop offset="1" stop-color="#00AA71"/>
</linearGradient>
<linearGradient id="paint4_linear" x1="22.5565" y1="3.30824" x2="59.9053" y2="69.8205" gradientUnits="userSpaceOnUse">
<stop stop-color="#00D561"/>
<stop offset="1" stop-color="#00AA71"/>
</linearGradient>
<linearGradient id="paint5_linear" x1="22.5565" y1="3.30824" x2="59.9053" y2="69.8205" gradientUnits="userSpaceOnUse">
<stop stop-color="#00D561"/>
<stop offset="1" stop-color="#00AA71"/>
</linearGradient>
<linearGradient id="paint6_linear" x1="22.5565" y1="3.30824" x2="59.9053" y2="69.8205" gradientUnits="userSpaceOnUse">
<stop stop-color="#00D561"/>
<stop offset="1" stop-color="#00AA71"/>
</linearGradient>
<linearGradient id="paint7_linear" x1="22.5565" y1="3.30824" x2="59.9053" y2="69.8205" gradientUnits="userSpaceOnUse">
<stop stop-color="#00D561"/>
<stop offset="1" stop-color="#00AA71"/>
</linearGradient>
<linearGradient id="paint8_linear" x1="22.5565" y1="3.30824" x2="59.9053" y2="69.8205" gradientUnits="userSpaceOnUse">
<stop stop-color="#00D561"/>
<stop offset="1" stop-color="#00AA71"/>
</linearGradient>
<linearGradient id="paint9_linear" x1="22.5565" y1="3.30824" x2="59.9053" y2="69.8205" gradientUnits="userSpaceOnUse">
<stop stop-color="#00D561"/>
<stop offset="1" stop-color="#00AA71"/>
</linearGradient>
<linearGradient id="paint10_linear" x1="22.5565" y1="3.30824" x2="59.9053" y2="69.8205" gradientUnits="userSpaceOnUse">
<stop stop-color="#00D561"/>
<stop offset="1" stop-color="#00AA71"/>
</linearGradient>
</defs>
</svg>
