<svg width="70" height="44" viewBox="0 0 70 44" fill="none" xmlns="http://www.w3.org/2000/svg">
<path d="M55.2709 30.1692C53.8971 27.2886 48.9825 23.2903 44.2343 19.427C41.5859 17.2738 39.0834 15.2381 37.488 13.6336C37.0884 13.2287 36.4905 13.0996 35.9626 13.2903C34.9798 13.6483 34.373 13.924 33.8948 14.1381C33.1656 14.4666 32.9206 14.5781 31.9376 14.6778C31.503 14.7218 31.1123 14.9565 30.8701 15.3202C28.808 18.4207 26.673 18.1567 25.2468 17.6757C24.7918 17.5233 24.7101 17.3266 24.6664 17.1389C24.3601 15.8512 25.8973 12.8532 27.8893 10.8497C32.6289 6.07993 35.073 4.88599 40.2355 7.20636C46.0921 9.84052 51.9605 11.9028 52.0189 11.9233C52.786 12.1902 53.6114 11.7854 53.8768 11.0197C54.1393 10.2541 53.7396 9.41811 52.9784 9.15121C52.92 9.13072 47.1684 7.10956 41.4284 4.52518C34.7405 1.51838 31.0712 3.49844 25.83 8.7728C23.835 10.7793 21.1254 14.839 21.8254 17.8166C22.1257 19.0838 23.0125 20.0225 24.3307 20.4595C27.6354 21.5567 30.6511 20.5064 32.897 17.5085C33.8245 17.3649 34.3291 17.1536 35.0874 16.8104C35.3615 16.6872 35.6824 16.5435 36.1082 16.3704C37.7766 17.9457 40.0282 19.779 42.3995 21.7063C46.687 25.194 51.5491 29.1484 52.6429 31.4364C53.1825 32.5657 52.602 33.3021 52.2082 33.6394C51.6307 34.1381 50.8404 34.2965 50.4116 33.9943C49.9391 33.6687 49.3237 33.6482 48.8366 33.9415C48.3466 34.2348 48.0725 34.7892 48.1338 35.3583C48.2329 36.2911 47.3841 36.8251 47.0166 37.0099C46.0832 37.4851 45.1091 37.403 44.7445 37.0627C44.3361 36.6814 43.7499 36.5698 43.2307 36.7635C42.7116 36.9599 42.3499 37.4411 42.2974 37.9984C42.2099 38.9605 41.5011 39.8845 40.5765 40.2453C40.1302 40.4154 39.4827 40.5181 38.9024 39.9842C38.5407 39.6557 38.039 39.5295 37.5695 39.6439C37.0941 39.7612 36.712 40.1074 36.5457 40.5679C36.4904 40.7146 36.3649 41.0666 34.9999 41.0666C34.0286 41.0666 32.2815 40.4066 31.427 39.8375C30.4032 39.1599 23.9836 34.3433 18.4391 29.6732C17.6604 29.0132 16.3129 27.5992 15.1229 26.3496C14.067 25.2408 13.1016 24.2347 12.6057 23.8123C11.9845 23.2842 11.0657 23.3634 10.5495 23.9854C10.0304 24.6043 10.1061 25.5313 10.7216 26.0534C11.1737 26.4378 12.0488 27.3676 13.0141 28.3796C14.315 29.7465 15.6595 31.1605 16.5637 31.9232C21.9946 36.4964 28.5221 41.4334 29.8229 42.2928C30.8962 43.0027 33.2091 44 35 44C36.4379 44 37.5434 43.6685 38.3104 43.0203C39.337 43.4222 40.5037 43.4251 41.6266 42.9851C42.9538 42.4688 44.0445 41.4274 44.6629 40.1661C45.812 40.4125 47.1275 40.2394 48.3232 39.6352C49.4929 39.0427 50.3386 38.1363 50.7586 37.0772C51.9195 37.1388 53.1152 36.7252 54.104 35.8716C55.7784 34.4314 56.2391 32.1904 55.2709 30.1692Z" fill="#005AAC"/>
<path d="M55.2709 30.1692C53.8971 27.2886 48.9825 23.2903 44.2343 19.427C41.5859 17.2738 39.0834 15.2381 37.488 13.6336C37.0884 13.2287 36.4905 13.0996 35.9626 13.2903C34.9798 13.6483 34.373 13.924 33.8948 14.1381C33.1656 14.4666 32.9206 14.5781 31.9376 14.6778C31.503 14.7218 31.1123 14.9565 30.8701 15.3202C28.808 18.4207 26.673 18.1567 25.2468 17.6757C24.7918 17.5233 24.7101 17.3266 24.6664 17.1389C24.3601 15.8512 25.8973 12.8532 27.8893 10.8497C32.6289 6.07993 35.073 4.88599 40.2355 7.20636C46.0921 9.84052 51.9605 11.9028 52.0189 11.9233C52.786 12.1902 53.6114 11.7854 53.8768 11.0197C54.1393 10.2541 53.7396 9.41811 52.9784 9.15121C52.92 9.13072 47.1684 7.10956 41.4284 4.52518C34.7405 1.51838 31.0712 3.49844 25.83 8.7728C23.835 10.7793 21.1254 14.839 21.8254 17.8166C22.1257 19.0838 23.0125 20.0225 24.3307 20.4595C27.6354 21.5567 30.6511 20.5064 32.897 17.5085C33.8245 17.3649 34.3291 17.1536 35.0874 16.8104C35.3615 16.6872 35.6824 16.5435 36.1082 16.3704C37.7766 17.9457 40.0282 19.779 42.3995 21.7063C46.687 25.194 51.5491 29.1484 52.6429 31.4364C53.1825 32.5657 52.602 33.3021 52.2082 33.6394C51.6307 34.1381 50.8404 34.2965 50.4116 33.9943C49.9391 33.6687 49.3237 33.6482 48.8366 33.9415C48.3466 34.2348 48.0725 34.7892 48.1338 35.3583C48.2329 36.2911 47.3841 36.8251 47.0166 37.0099C46.0832 37.4851 45.1091 37.403 44.7445 37.0627C44.3361 36.6814 43.7499 36.5698 43.2307 36.7635C42.7116 36.9599 42.3499 37.4411 42.2974 37.9984C42.2099 38.9605 41.5011 39.8845 40.5765 40.2453C40.1302 40.4154 39.4827 40.5181 38.9024 39.9842C38.5407 39.6557 38.039 39.5295 37.5695 39.6439C37.0941 39.7612 36.712 40.1074 36.5457 40.5679C36.4904 40.7146 36.3649 41.0666 34.9999 41.0666C34.0286 41.0666 32.2815 40.4066 31.427 39.8375C30.4032 39.1599 23.9836 34.3433 18.4391 29.6732C17.6604 29.0132 16.3129 27.5992 15.1229 26.3496C14.067 25.2408 13.1016 24.2347 12.6057 23.8123C11.9845 23.2842 11.0657 23.3634 10.5495 23.9854C10.0304 24.6043 10.1061 25.5313 10.7216 26.0534C11.1737 26.4378 12.0488 27.3676 13.0141 28.3796C14.315 29.7465 15.6595 31.1605 16.5637 31.9232C21.9946 36.4964 28.5221 41.4334 29.8229 42.2928C30.8962 43.0027 33.2091 44 35 44C36.4379 44 37.5434 43.6685 38.3104 43.0203C39.337 43.4222 40.5037 43.4251 41.6266 42.9851C42.9538 42.4688 44.0445 41.4274 44.6629 40.1661C45.812 40.4125 47.1275 40.2394 48.3232 39.6352C49.4929 39.0427 50.3386 38.1363 50.7586 37.0772C51.9195 37.1388 53.1152 36.7252 54.104 35.8716C55.7784 34.4314 56.2391 32.1904 55.2709 30.1692Z" fill="url(#paint0_linear)"/>
<path d="M29.1666 5.86584H16.0416C15.2366 5.86584 14.5832 6.52297 14.5832 7.33259C14.5832 8.14221 15.2366 8.79934 16.0416 8.79934H29.1666C29.9716 8.79934 30.625 8.14221 30.625 7.33259C30.625 6.52297 29.9716 5.86584 29.1666 5.86584Z" fill="#005AAC"/>
<path d="M29.1666 5.86584H16.0416C15.2366 5.86584 14.5832 6.52297 14.5832 7.33259C14.5832 8.14221 15.2366 8.79934 16.0416 8.79934H29.1666C29.9716 8.79934 30.625 8.14221 30.625 7.33259C30.625 6.52297 29.9716 5.86584 29.1666 5.86584Z" fill="url(#paint1_linear)"/>
<path d="M59.5437 27.048C59.0916 26.3763 58.1875 26.1915 57.5196 26.6491L53.2555 29.5297C52.5876 29.9814 52.4096 30.8937 52.8589 31.5654C53.1418 31.9849 53.6026 32.2137 54.0723 32.2137C54.3494 32.2137 54.6323 32.1345 54.8831 31.9644L59.1473 29.0839C59.815 28.632 59.9929 27.7198 59.5437 27.048Z" fill="#005AAC"/>
<path d="M59.5437 27.048C59.0916 26.3763 58.1875 26.1915 57.5196 26.6491L53.2555 29.5297C52.5876 29.9814 52.4096 30.8937 52.8589 31.5654C53.1418 31.9849 53.6026 32.2137 54.0723 32.2137C54.3494 32.2137 54.6323 32.1345 54.8831 31.9644L59.1473 29.0839C59.815 28.632 59.9929 27.7198 59.5437 27.048Z" fill="url(#paint2_linear)"/>
<path d="M50.4904 34.0472C49.4463 33.22 44.7766 28.4122 41.8891 25.3849C41.332 24.7982 40.4075 24.7777 39.827 25.3409C39.2436 25.9012 39.2261 26.831 39.7832 27.4149C40.5329 28.201 47.1449 35.1327 48.682 36.353C48.9474 36.5642 49.2682 36.6669 49.5832 36.6669C50.012 36.6669 50.4408 36.4733 50.7324 36.1066C51.2313 35.4728 51.1234 34.5488 50.4904 34.0472Z" fill="#005AAC"/>
<path d="M50.4904 34.0472C49.4463 33.22 44.7766 28.4122 41.8891 25.3849C41.332 24.7982 40.4075 24.7777 39.827 25.3409C39.2436 25.9012 39.2261 26.831 39.7832 27.4149C40.5329 28.201 47.1449 35.1327 48.682 36.353C48.9474 36.5642 49.2682 36.6669 49.5832 36.6669C50.012 36.6669 50.4408 36.4733 50.7324 36.1066C51.2313 35.4728 51.1234 34.5488 50.4904 34.0472Z" fill="url(#paint3_linear)"/>
<path d="M44.6629 36.9894C42.9157 35.5842 38.5262 30.8937 37.5345 29.8084C36.9861 29.21 36.0674 29.1748 35.4724 29.7204C34.8802 30.2689 34.8395 31.1988 35.3849 31.7943C35.4374 31.85 40.6757 37.538 42.8399 39.2805C43.1082 39.4945 43.432 39.6002 43.7499 39.6002C44.1757 39.6002 44.6015 39.4094 44.8902 39.0517C45.3921 38.4179 45.29 37.4939 44.6629 36.9894Z" fill="#005AAC"/>
<path d="M44.6629 36.9894C42.9157 35.5842 38.5262 30.8937 37.5345 29.8084C36.9861 29.21 36.0674 29.1748 35.4724 29.7204C34.8802 30.2689 34.8395 31.1988 35.3849 31.7943C35.4374 31.85 40.6757 37.538 42.8399 39.2805C43.1082 39.4945 43.432 39.6002 43.7499 39.6002C44.1757 39.6002 44.6015 39.4094 44.8902 39.0517C45.3921 38.4179 45.29 37.4939 44.6629 36.9894Z" fill="url(#paint4_linear)"/>
<path d="M38.8587 39.9434C36.7791 38.1804 32.5238 33.6248 31.6925 32.7301C31.1413 32.1376 30.2166 32.1052 29.6304 32.6597C29.0413 33.2141 29.012 34.141 29.5604 34.7336C30.7563 36.0214 34.8279 40.3629 36.9775 42.1874C37.2516 42.4191 37.5841 42.5335 37.9166 42.5335C38.3307 42.5335 38.745 42.3546 39.0337 42.0114C39.5529 41.3895 39.4741 40.4655 38.8587 39.9434Z" fill="#005AAC"/>
<path d="M38.8587 39.9434C36.7791 38.1804 32.5238 33.6248 31.6925 32.7301C31.1413 32.1376 30.2166 32.1052 29.6304 32.6597C29.0413 33.2141 29.012 34.141 29.5604 34.7336C30.7563 36.0214 34.8279 40.3629 36.9775 42.1874C37.2516 42.4191 37.5841 42.5335 37.9166 42.5335C38.3307 42.5335 38.745 42.3546 39.0337 42.0114C39.5529 41.3895 39.4741 40.4655 38.8587 39.9434Z" fill="url(#paint5_linear)"/>
<path d="M17.045 3.33439C14.5454 0.952419 4.55 0.180886 1.54588 0.00199389C1.13176 -0.0184942 0.749629 0.119285 0.458008 0.398005C0.16625 0.6737 0 1.06091 0 1.46572V27.8664C0 28.676 0.653379 29.3332 1.45838 29.3332H10.2084C10.8384 29.3332 11.3984 28.9255 11.5938 28.3211C11.8066 27.664 16.8321 12.1522 17.4941 4.52531C17.5321 4.07939 17.3687 3.63938 17.045 3.33439ZM9.14375 26.3998H2.91662V3.03807C7.60375 3.41057 12.6612 4.22019 14.4987 5.11782C13.7259 11.542 10.2287 22.9559 9.14375 26.3998Z" fill="#005AAC"/>
<path d="M17.045 3.33439C14.5454 0.952419 4.55 0.180886 1.54588 0.00199389C1.13176 -0.0184942 0.749629 0.119285 0.458008 0.398005C0.16625 0.6737 0 1.06091 0 1.46572V27.8664C0 28.676 0.653379 29.3332 1.45838 29.3332H10.2084C10.8384 29.3332 11.3984 28.9255 11.5938 28.3211C11.8066 27.664 16.8321 12.1522 17.4941 4.52531C17.5321 4.07939 17.3687 3.63938 17.045 3.33439ZM9.14375 26.3998H2.91662V3.03807C7.60375 3.41057 12.6612 4.22019 14.4987 5.11782C13.7259 11.542 10.2287 22.9559 9.14375 26.3998Z" fill="url(#paint6_linear)"/>
<path d="M68.5416 2.93247C57.0907 2.93247 50.7382 5.88055 50.4729 6.00375C50.0938 6.18265 49.8107 6.51417 49.6941 6.91609C49.5775 7.31801 49.6357 7.74923 49.8545 8.10701C51.657 11.0258 57.3007 27.2358 58.3857 31.19C58.5607 31.8265 59.1354 32.2665 59.7916 32.2665H68.5416C69.3466 32.2665 70 31.6094 70 30.7998V4.39909C70 3.58658 69.3466 2.93247 68.5416 2.93247ZM67.0834 29.3332H60.8825C59.5 24.8039 55.4166 12.994 53.1387 8.11292C55.3641 7.35321 60.1446 6.04776 67.0834 5.88358V29.3332Z" fill="#005AAC"/>
<path d="M68.5416 2.93247C57.0907 2.93247 50.7382 5.88055 50.4729 6.00375C50.0938 6.18265 49.8107 6.51417 49.6941 6.91609C49.5775 7.31801 49.6357 7.74923 49.8545 8.10701C51.657 11.0258 57.3007 27.2358 58.3857 31.19C58.5607 31.8265 59.1354 32.2665 59.7916 32.2665H68.5416C69.3466 32.2665 70 31.6094 70 30.7998V4.39909C70 3.58658 69.3466 2.93247 68.5416 2.93247ZM67.0834 29.3332H60.8825C59.5 24.8039 55.4166 12.994 53.1387 8.11292C55.3641 7.35321 60.1446 6.04776 67.0834 5.88358V29.3332Z" fill="url(#paint7_linear)"/>
<defs>
<linearGradient id="paint0_linear" x1="35" y1="0" x2="35" y2="44" gradientUnits="userSpaceOnUse">
<stop stop-color="#00D561"/>
<stop offset="1" stop-color="#00AA71"/>
</linearGradient>
<linearGradient id="paint1_linear" x1="35" y1="0" x2="35" y2="44" gradientUnits="userSpaceOnUse">
<stop stop-color="#00D561"/>
<stop offset="1" stop-color="#00AA71"/>
</linearGradient>
<linearGradient id="paint2_linear" x1="35" y1="0" x2="35" y2="44" gradientUnits="userSpaceOnUse">
<stop stop-color="#00D561"/>
<stop offset="1" stop-color="#00AA71"/>
</linearGradient>
<linearGradient id="paint3_linear" x1="35" y1="0" x2="35" y2="44" gradientUnits="userSpaceOnUse">
<stop stop-color="#00D561"/>
<stop offset="1" stop-color="#00AA71"/>
</linearGradient>
<linearGradient id="paint4_linear" x1="35" y1="0" x2="35" y2="44" gradientUnits="userSpaceOnUse">
<stop stop-color="#00D561"/>
<stop offset="1" stop-color="#00AA71"/>
</linearGradient>
<linearGradient id="paint5_linear" x1="35" y1="0" x2="35" y2="44" gradientUnits="userSpaceOnUse">
<stop stop-color="#00D561"/>
<stop offset="1" stop-color="#00AA71"/>
</linearGradient>
<linearGradient id="paint6_linear" x1="35" y1="0" x2="35" y2="44" gradientUnits="userSpaceOnUse">
<stop stop-color="#00D561"/>
<stop offset="1" stop-color="#00AA71"/>
</linearGradient>
<linearGradient id="paint7_linear" x1="35" y1="0" x2="35" y2="44" gradientUnits="userSpaceOnUse">
<stop stop-color="#00D561"/>
<stop offset="1" stop-color="#00AA71"/>
</linearGradient>
</defs>
</svg>
