<svg width="100" height="100" viewBox="0 0 100 100" fill="none" xmlns="http://www.w3.org/2000/svg">
<g clip-path="url(#clip0)">
<path d="M99.8329 60.977L99.8479 60.972L83.4297 25.149L87.4114 23.1673L85.9214 20.184L82.0397 22.1173L81.5147 20.9724C81.131 20.1357 80.1418 19.7684 79.3052 20.1519C78.9423 20.3184 78.6512 20.6094 78.4848 20.9724L78.0164 21.9957C75.1915 20.6836 72.1146 20.0028 68.9998 20.0007H55V16.6674H58.3333V13.3341H55.4683L56.6666 8.53912C57.5866 4.85728 55.3479 1.12668 51.666 0.206482C47.9842 -0.71351 44.2536 1.52522 43.3334 5.20707C43.0601 6.30081 43.0601 7.44517 43.3334 8.53891L44.5317 13.3339H41.6667V16.6672H45V20.0005H31.0085C27.8906 20.003 24.8106 20.6855 21.9836 22.0005L21.5152 20.9771C21.1317 20.1405 20.1423 19.7732 19.3057 20.1567C18.9428 20.3232 18.6517 20.6142 18.4853 20.9771L17.9603 22.1221L14.0786 20.1805L12.5886 23.1671L16.5703 25.1571L0.152084 60.972C0.0508351 61.1897 -0.00083111 61.427 0.000418879 61.667C0.00771049 68.1072 5.22683 73.3263 11.667 73.3336H28.3335C34.7737 73.3263 39.9928 68.1072 40.0001 61.667C39.9959 61.4276 39.939 61.192 39.8334 60.977L23.3702 25.019C25.7633 23.9082 28.3702 23.3332 31.0085 23.334H45V84.3102L39.3101 90.0001H33.3335C28.7335 90.0055 25.0056 93.7334 25.0002 98.3334C25.0002 99.2538 25.7465 100 26.6669 100H73.3331C74.2536 100 74.9998 99.2538 74.9998 98.3334C74.9944 93.7334 71.2665 90.0055 66.6665 90.0001H60.6899L55 84.3102V23.334H68.9998C71.6382 23.3332 74.245 23.9082 76.6381 25.019L60.1516 60.972C60.0503 61.1897 59.9987 61.427 59.9999 61.667C60.0072 68.1072 65.2263 73.3263 71.6665 73.3336H88.333C94.7732 73.3263 99.9923 68.1072 99.9996 61.667C99.9956 61.4276 99.9388 61.192 99.8329 60.977ZM28.3335 70.0003H11.667C7.70827 69.9959 4.29726 67.2113 3.50039 63.3337H36.5001C35.7035 67.2113 32.2922 69.9959 28.3335 70.0003ZM35.7368 60.0004H4.26372L19.5736 26.599C19.8532 26.674 20.1473 26.674 20.4269 26.599L35.7368 60.0004ZM47.2117 4.69415C48.5096 3.15417 50.8102 2.95813 52.3502 4.25603C52.5083 4.38936 52.655 4.53603 52.7883 4.69415C53.4625 5.55165 53.7006 6.6733 53.4333 7.73079L52.0317 13.3341H47.9684L46.5667 7.73079C46.2994 6.6733 46.5377 5.55165 47.2117 4.69415ZM48.3334 20.0007V16.6674H51.6667V20.0007H48.3334ZM51.6667 23.334V83.3335H48.3334V23.334H51.6667ZM66.6665 93.3334C68.7849 93.3359 70.6725 94.6705 71.3815 96.6667H28.6185C29.3275 94.6705 31.2152 93.3359 33.3335 93.3334H66.6665ZM55.9766 90.0001H44.0234L47.3567 86.6668H52.6433L55.9766 90.0001ZM79.5698 26.604C79.845 26.7008 80.1468 26.6883 80.4131 26.569L95.7363 60.0004H64.2632L79.5698 26.604ZM88.333 70.0003H71.6665C67.7078 69.9959 64.2968 67.2113 63.4999 63.3337H96.4996C95.703 67.2113 92.2917 69.9959 88.333 70.0003Z" fill="black"/>
<path d="M99.8329 60.977L99.8479 60.972L83.4297 25.149L87.4114 23.1673L85.9214 20.184L82.0397 22.1173L81.5147 20.9724C81.131 20.1357 80.1418 19.7684 79.3052 20.1519C78.9423 20.3184 78.6512 20.6094 78.4848 20.9724L78.0164 21.9957C75.1915 20.6836 72.1146 20.0028 68.9998 20.0007H55V16.6674H58.3333V13.3341H55.4683L56.6666 8.53912C57.5866 4.85728 55.3479 1.12668 51.666 0.206482C47.9842 -0.71351 44.2536 1.52522 43.3334 5.20707C43.0601 6.30081 43.0601 7.44517 43.3334 8.53891L44.5317 13.3339H41.6667V16.6672H45V20.0005H31.0085C27.8906 20.003 24.8106 20.6855 21.9836 22.0005L21.5152 20.9771C21.1317 20.1405 20.1423 19.7732 19.3057 20.1567C18.9428 20.3232 18.6517 20.6142 18.4853 20.9771L17.9603 22.1221L14.0786 20.1805L12.5886 23.1671L16.5703 25.1571L0.152084 60.972C0.0508351 61.1897 -0.00083111 61.427 0.000418879 61.667C0.00771049 68.1072 5.22683 73.3263 11.667 73.3336H28.3335C34.7737 73.3263 39.9928 68.1072 40.0001 61.667C39.9959 61.4276 39.939 61.192 39.8334 60.977L23.3702 25.019C25.7633 23.9082 28.3702 23.3332 31.0085 23.334H45V84.3102L39.3101 90.0001H33.3335C28.7335 90.0055 25.0056 93.7334 25.0002 98.3334C25.0002 99.2538 25.7465 100 26.6669 100H73.3331C74.2536 100 74.9998 99.2538 74.9998 98.3334C74.9944 93.7334 71.2665 90.0055 66.6665 90.0001H60.6899L55 84.3102V23.334H68.9998C71.6382 23.3332 74.245 23.9082 76.6381 25.019L60.1516 60.972C60.0503 61.1897 59.9987 61.427 59.9999 61.667C60.0072 68.1072 65.2263 73.3263 71.6665 73.3336H88.333C94.7732 73.3263 99.9923 68.1072 99.9996 61.667C99.9956 61.4276 99.9388 61.192 99.8329 60.977ZM28.3335 70.0003H11.667C7.70827 69.9959 4.29726 67.2113 3.50039 63.3337H36.5001C35.7035 67.2113 32.2922 69.9959 28.3335 70.0003ZM35.7368 60.0004H4.26372L19.5736 26.599C19.8532 26.674 20.1473 26.674 20.4269 26.599L35.7368 60.0004ZM47.2117 4.69415C48.5096 3.15417 50.8102 2.95813 52.3502 4.25603C52.5083 4.38936 52.655 4.53603 52.7883 4.69415C53.4625 5.55165 53.7006 6.6733 53.4333 7.73079L52.0317 13.3341H47.9684L46.5667 7.73079C46.2994 6.6733 46.5377 5.55165 47.2117 4.69415ZM48.3334 20.0007V16.6674H51.6667V20.0007H48.3334ZM51.6667 23.334V83.3335H48.3334V23.334H51.6667ZM66.6665 93.3334C68.7849 93.3359 70.6725 94.6705 71.3815 96.6667H28.6185C29.3275 94.6705 31.2152 93.3359 33.3335 93.3334H66.6665ZM55.9766 90.0001H44.0234L47.3567 86.6668H52.6433L55.9766 90.0001ZM79.5698 26.604C79.845 26.7008 80.1468 26.6883 80.4131 26.569L95.7363 60.0004H64.2632L79.5698 26.604ZM88.333 70.0003H71.6665C67.7078 69.9959 64.2968 67.2113 63.4999 63.3337H96.4996C95.703 67.2113 92.2917 69.9959 88.333 70.0003Z" fill="url(#paint0_linear)"/>
</g>
<defs>
<linearGradient id="paint0_linear" x1="50" y1="-0.00012207" x2="50" y2="100" gradientUnits="userSpaceOnUse">
<stop stop-color="#00D461"/>
<stop offset="1" stop-color="#00AB70"/>
</linearGradient>
<clipPath id="clip0">
<rect width="100" height="100" fill="white"/>
</clipPath>
</defs>
</svg>
