<svg width="100" height="100" viewBox="0 0 100 100" fill="none" xmlns="http://www.w3.org/2000/svg">
<path d="M33.3334 0C19.5263 0 8.33337 11.1929 8.33337 25V43.3333C8.34067 49.7735 13.5598 54.9927 20 55H21.6667V51.6667H20C15.4 51.6612 11.6721 47.9333 11.6667 43.3333V25C11.6667 13.0337 21.3671 3.33333 33.3334 3.33333C45.2996 3.33333 55 13.0337 55 25V43.3333C54.9946 47.9333 51.2667 51.6612 46.6667 51.6667H45V55H46.6667C53.1069 54.9927 58.3261 49.7735 58.3334 43.3333V25C58.3334 11.1929 47.1405 0 33.3334 0Z" fill="#00AA71"/>
<path d="M33.3334 0C19.5263 0 8.33337 11.1929 8.33337 25V43.3333C8.34067 49.7735 13.5598 54.9927 20 55H21.6667V51.6667H20C15.4 51.6612 11.6721 47.9333 11.6667 43.3333V25C11.6667 13.0337 21.3671 3.33333 33.3334 3.33333C45.2996 3.33333 55 13.0337 55 25V43.3333C54.9946 47.9333 51.2667 51.6612 46.6667 51.6667H45V55H46.6667C53.1069 54.9927 58.3261 49.7735 58.3334 43.3333V25C58.3334 11.1929 47.1405 0 33.3334 0Z" fill="url(#paint0_linear)"/>
<path d="M13.735 78.5483L14.9533 76.6299L12.1383 74.8433L10.92 76.7633C7.23518 82.5699 7.50873 90.0466 11.6083 95.5683V99.9999H14.9416V94.9999C14.9419 94.6214 14.8131 94.2539 14.5766 93.9583C11.0333 89.5287 10.6952 83.3374 13.735 78.5483Z" fill="#00AA71"/>
<path d="M13.735 78.5483L14.9533 76.6299L12.1383 74.8433L10.92 76.7633C7.23518 82.5699 7.50873 90.0466 11.6083 95.5683V99.9999H14.9416V94.9999C14.9419 94.6214 14.8131 94.2539 14.5766 93.9583C11.0333 89.5287 10.6952 83.3374 13.735 78.5483Z" fill="url(#paint1_linear)"/>
<path d="M91.6666 0H70C65.4 0.00541667 61.672 3.73333 61.6666 8.33333V25C61.672 29.6 65.4 33.3279 70 33.3333H73.3333V40C73.3331 40.674 73.7389 41.2819 74.3616 41.54C74.5639 41.6244 74.7808 41.6673 75 41.6667C75.442 41.6667 75.8658 41.4908 76.1783 41.1783L84.0233 33.3333H91.6666C96.2666 33.3279 99.9945 29.6 100 25V8.33333C99.9945 3.73333 96.2666 0.00541667 91.6666 0ZM96.6666 25C96.6666 27.7615 94.4281 30 91.6666 30H83.3333C82.8912 30 82.4675 30.1758 82.155 30.4883L76.6666 35.9767V31.6667C76.6666 30.7463 75.9204 30 75 30H70C67.2385 30 65 27.7615 65 25V8.33333C65 5.57187 67.2385 3.33333 70 3.33333H91.6666C94.4281 3.33333 96.6666 5.57187 96.6666 8.33333V25Z" fill="#00AA71"/>
<path d="M91.6666 0H70C65.4 0.00541667 61.672 3.73333 61.6666 8.33333V25C61.672 29.6 65.4 33.3279 70 33.3333H73.3333V40C73.3331 40.674 73.7389 41.2819 74.3616 41.54C74.5639 41.6244 74.7808 41.6673 75 41.6667C75.442 41.6667 75.8658 41.4908 76.1783 41.1783L84.0233 33.3333H91.6666C96.2666 33.3279 99.9945 29.6 100 25V8.33333C99.9945 3.73333 96.2666 0.00541667 91.6666 0ZM96.6666 25C96.6666 27.7615 94.4281 30 91.6666 30H83.3333C82.8912 30 82.4675 30.1758 82.155 30.4883L76.6666 35.9767V31.6667C76.6666 30.7463 75.9204 30 75 30H70C67.2385 30 65 27.7615 65 25V8.33333C65 5.57187 67.2385 3.33333 70 3.33333H91.6666C94.4281 3.33333 96.6666 5.57187 96.6666 8.33333V25Z" fill="url(#paint2_linear)"/>
<path d="M81.6667 8.33337H70V11.6667H81.6667V8.33337Z" fill="#00AA71"/>
<path d="M81.6667 8.33337H70V11.6667H81.6667V8.33337Z" fill="url(#paint3_linear)"/>
<path d="M91.6667 8.33337H85V11.6667H91.6667V8.33337Z" fill="#00AA71"/>
<path d="M91.6667 8.33337H85V11.6667H91.6667V8.33337Z" fill="url(#paint4_linear)"/>
<path d="M91.6667 15H70V18.3333H91.6667V15Z" fill="#00AA71"/>
<path d="M91.6667 15H70V18.3333H91.6667V15Z" fill="url(#paint5_linear)"/>
<path d="M81.6667 21.6666H70V25H81.6667V21.6666Z" fill="#00AA71"/>
<path d="M81.6667 21.6666H70V25H81.6667V21.6666Z" fill="url(#paint6_linear)"/>
<path d="M55.7467 76.7633L54.5284 74.8433L51.7134 76.6299L52.9317 78.5499C55.9717 83.3385 55.6336 89.5293 52.09 93.9583C51.8536 94.2539 51.7248 94.6214 51.725 94.9999V99.9999H55.0584V95.5683C59.158 90.0466 59.4315 82.5699 55.7467 76.7633Z" fill="#00AA71"/>
<path d="M55.7467 76.7633L54.5284 74.8433L51.7134 76.6299L52.9317 78.5499C55.9717 83.3385 55.6336 89.5293 52.09 93.9583C51.8536 94.2539 51.7248 94.6214 51.725 94.9999V99.9999H55.0584V95.5683C59.158 90.0466 59.4315 82.5699 55.7467 76.7633Z" fill="url(#paint7_linear)"/>
<path d="M98.3333 56.6667H83.3333C77.08 56.674 71.9446 61.6102 71.69 67.8583L66.6667 76.9017V70C66.6594 63.5598 61.4402 58.3406 55 58.3333H48.9083L48.8633 58.2983L48.8333 58.3333H45C43.159 58.3333 41.6667 56.841 41.6667 55V51.0783C46.8165 48.105 49.9921 42.6131 50 36.6667V23.3333C49.9975 20.5719 49.3104 17.8542 48 15.4233C47.5802 14.65 46.6315 14.3361 45.8333 14.7067L17.6233 27.98C17.0392 28.255 16.6665 28.8427 16.6667 29.4883V36.6667C16.6746 42.6131 19.8502 48.105 25 51.0783V55C25 56.841 23.5077 58.3333 21.6667 58.3333H11.6667C5.22646 58.3406 0.00729167 63.5598 0 70V100H3.33333V70C3.33875 65.4 7.06667 61.6721 11.6667 61.6667H16.97L31.9783 82.6367C32.2867 83.0677 32.7817 83.3262 33.3117 83.3333H33.3333C33.8579 83.3333 34.3519 83.0862 34.6667 82.6667L50.5 61.6667H55C59.6 61.6721 63.3279 65.4 63.3333 70V83.3333C63.3342 84.2537 64.081 84.9994 65.0015 84.9985C65.606 84.9979 66.1629 84.6702 66.4567 84.1417L74.3133 70H83.8683L67.6183 100H71.41L87.6667 70H88.3333C94.7735 69.9927 99.9927 64.7735 100 58.3333C100 57.4129 99.2537 56.6667 98.3333 56.6667ZM20 36.6667V30.5467L45.735 18.4367C46.3506 19.9958 46.6667 21.6571 46.6667 23.3333V36.6667C46.6667 44.0304 40.6971 50 33.3333 50C25.9696 50 20 44.0304 20 36.6667ZM33.3683 78.8533L28.225 71.6667H38.785L33.3683 78.8533ZM41.3067 68.3333H25.8333L21.0617 61.6667H21.6667C25.3485 61.6667 28.3333 58.6819 28.3333 55V52.565C31.5879 53.5894 35.0788 53.5894 38.3333 52.565V55C38.3333 58.6819 41.3181 61.6667 45 61.6667H46.3333L41.3067 68.3333ZM88.3333 66.6667H75.1667C75.9635 62.789 79.3746 60.0044 83.3333 60H96.5C95.7031 63.8777 92.2921 66.6623 88.3333 66.6667Z" fill="#00AA71"/>
<path d="M98.3333 56.6667H83.3333C77.08 56.674 71.9446 61.6102 71.69 67.8583L66.6667 76.9017V70C66.6594 63.5598 61.4402 58.3406 55 58.3333H48.9083L48.8633 58.2983L48.8333 58.3333H45C43.159 58.3333 41.6667 56.841 41.6667 55V51.0783C46.8165 48.105 49.9921 42.6131 50 36.6667V23.3333C49.9975 20.5719 49.3104 17.8542 48 15.4233C47.5802 14.65 46.6315 14.3361 45.8333 14.7067L17.6233 27.98C17.0392 28.255 16.6665 28.8427 16.6667 29.4883V36.6667C16.6746 42.6131 19.8502 48.105 25 51.0783V55C25 56.841 23.5077 58.3333 21.6667 58.3333H11.6667C5.22646 58.3406 0.00729167 63.5598 0 70V100H3.33333V70C3.33875 65.4 7.06667 61.6721 11.6667 61.6667H16.97L31.9783 82.6367C32.2867 83.0677 32.7817 83.3262 33.3117 83.3333H33.3333C33.8579 83.3333 34.3519 83.0862 34.6667 82.6667L50.5 61.6667H55C59.6 61.6721 63.3279 65.4 63.3333 70V83.3333C63.3342 84.2537 64.081 84.9994 65.0015 84.9985C65.606 84.9979 66.1629 84.6702 66.4567 84.1417L74.3133 70H83.8683L67.6183 100H71.41L87.6667 70H88.3333C94.7735 69.9927 99.9927 64.7735 100 58.3333C100 57.4129 99.2537 56.6667 98.3333 56.6667ZM20 36.6667V30.5467L45.735 18.4367C46.3506 19.9958 46.6667 21.6571 46.6667 23.3333V36.6667C46.6667 44.0304 40.6971 50 33.3333 50C25.9696 50 20 44.0304 20 36.6667ZM33.3683 78.8533L28.225 71.6667H38.785L33.3683 78.8533ZM41.3067 68.3333H25.8333L21.0617 61.6667H21.6667C25.3485 61.6667 28.3333 58.6819 28.3333 55V52.565C31.5879 53.5894 35.0788 53.5894 38.3333 52.565V55C38.3333 58.6819 41.3181 61.6667 45 61.6667H46.3333L41.3067 68.3333ZM88.3333 66.6667H75.1667C75.9635 62.789 79.3746 60.0044 83.3333 60H96.5C95.7031 63.8777 92.2921 66.6623 88.3333 66.6667Z" fill="url(#paint8_linear)"/>
<defs>
<linearGradient id="paint0_linear" x1="33.3334" y1="0" x2="33.3334" y2="55" gradientUnits="userSpaceOnUse">
<stop stop-color="#00D461"/>
<stop offset="1" stop-color="#00AA70"/>
</linearGradient>
<linearGradient id="paint1_linear" x1="11.6436" y1="74.8433" x2="11.6436" y2="99.9999" gradientUnits="userSpaceOnUse">
<stop stop-color="#00D461"/>
<stop offset="1" stop-color="#00AA70"/>
</linearGradient>
<linearGradient id="paint2_linear" x1="80.8333" y1="0" x2="80.8333" y2="41.6667" gradientUnits="userSpaceOnUse">
<stop stop-color="#00D461"/>
<stop offset="1" stop-color="#00AA70"/>
</linearGradient>
<linearGradient id="paint3_linear" x1="75.8333" y1="8.33337" x2="75.8333" y2="11.6667" gradientUnits="userSpaceOnUse">
<stop stop-color="#00D461"/>
<stop offset="1" stop-color="#00AA70"/>
</linearGradient>
<linearGradient id="paint4_linear" x1="88.3333" y1="8.33337" x2="88.3333" y2="11.6667" gradientUnits="userSpaceOnUse">
<stop stop-color="#00D461"/>
<stop offset="1" stop-color="#00AA70"/>
</linearGradient>
<linearGradient id="paint5_linear" x1="80.8333" y1="15" x2="80.8333" y2="18.3333" gradientUnits="userSpaceOnUse">
<stop stop-color="#00D461"/>
<stop offset="1" stop-color="#00AA70"/>
</linearGradient>
<linearGradient id="paint6_linear" x1="75.8333" y1="21.6666" x2="75.8333" y2="25" gradientUnits="userSpaceOnUse">
<stop stop-color="#00D461"/>
<stop offset="1" stop-color="#00AA70"/>
</linearGradient>
<linearGradient id="paint7_linear" x1="55.0231" y1="74.8433" x2="55.0231" y2="99.9999" gradientUnits="userSpaceOnUse">
<stop stop-color="#00D461"/>
<stop offset="1" stop-color="#00AA70"/>
</linearGradient>
<linearGradient id="paint8_linear" x1="50" y1="14.5514" x2="50" y2="100" gradientUnits="userSpaceOnUse">
<stop stop-color="#00D461"/>
<stop offset="1" stop-color="#00AA70"/>
</linearGradient>
</defs>
</svg>
