<svg width="100" height="100" viewBox="0 0 100 100" fill="none" xmlns="http://www.w3.org/2000/svg">
<g clip-path="url(#clip0)">
<path d="M61.6663 33.3336C61.659 39.7738 56.4399 44.9929 49.9997 45.0002V48.3335C58.2801 48.3244 64.9904 41.614 64.9996 33.3336H61.6663Z" fill="#00AA71"/>
<path d="M61.6663 33.3336C61.659 39.7738 56.4399 44.9929 49.9997 45.0002V48.3335C58.2801 48.3244 64.9904 41.614 64.9996 33.3336H61.6663Z" fill="url(#paint0_linear)"/>
<path d="M34.9998 33.3335H38.3331C38.3404 26.8934 43.5595 21.6742 49.9997 21.6669V18.3336C41.7193 18.3428 35.0089 25.053 34.9998 33.3335Z" fill="#00AA71"/>
<path d="M34.9998 33.3335H38.3331C38.3404 26.8934 43.5595 21.6742 49.9997 21.6669V18.3336C41.7193 18.3428 35.0089 25.053 34.9998 33.3335Z" fill="url(#paint1_linear)"/>
<path d="M53.0113 32.9785L47.5364 32.0669C46.9693 31.9752 46.5841 31.4412 46.6758 30.8742C46.7572 30.3702 47.1926 29.9998 47.703 30.0002H52.2897C52.8636 30.001 53.3288 30.4663 53.3297 31.0402V31.6669H56.663V31.0402C56.6603 28.6273 54.7059 26.6715 52.293 26.6669H51.6663V25.0002H48.333V26.6669H47.7064C45.291 26.6634 43.3301 28.6183 43.3266 31.0337C43.3235 33.1767 44.8737 35.0062 46.988 35.3552L52.463 36.2668C53.0301 36.3585 53.4153 36.8925 53.3236 37.4595C53.2422 37.9635 52.8068 38.3339 52.2963 38.3335H47.7064C47.1324 38.3327 46.6672 37.8675 46.6664 37.2935V36.6668H43.3331V37.2935C43.3358 39.7077 45.2922 41.6641 47.7064 41.6668H48.333V43.3335H51.6663V41.6668H52.293C54.7084 41.6703 56.6692 39.7154 56.6728 37.3C56.6759 35.1568 55.1257 33.3273 53.0113 32.9785Z" fill="#00AA71"/>
<path d="M53.0113 32.9785L47.5364 32.0669C46.9693 31.9752 46.5841 31.4412 46.6758 30.8742C46.7572 30.3702 47.1926 29.9998 47.703 30.0002H52.2897C52.8636 30.001 53.3288 30.4663 53.3297 31.0402V31.6669H56.663V31.0402C56.6603 28.6273 54.7059 26.6715 52.293 26.6669H51.6663V25.0002H48.333V26.6669H47.7064C45.291 26.6634 43.3301 28.6183 43.3266 31.0337C43.3235 33.1767 44.8737 35.0062 46.988 35.3552L52.463 36.2668C53.0301 36.3585 53.4153 36.8925 53.3236 37.4595C53.2422 37.9635 52.8068 38.3339 52.2963 38.3335H47.7064C47.1324 38.3327 46.6672 37.8675 46.6664 37.2935V36.6668H43.3331V37.2935C43.3358 39.7077 45.2922 41.6641 47.7064 41.6668H48.333V43.3335H51.6663V41.6668H52.293C54.7084 41.6703 56.6692 39.7154 56.6728 37.3C56.6759 35.1568 55.1257 33.3273 53.0113 32.9785Z" fill="url(#paint2_linear)"/>
<path d="M69.9995 25.0002V11.667H66.6662V19.5086C65.6725 18.3207 64.555 17.2417 63.3329 16.2903V6.66699H59.9996V14.1319C56.9152 12.5122 53.4834 11.6663 49.9997 11.667C49.4363 11.667 48.8847 11.7086 48.333 11.752V0.000366211H44.9997V12.272C43.8618 12.5353 42.747 12.8903 41.6664 13.3336V10.0003H38.3331V15.0003H38.4997C36.5508 16.2215 34.807 17.743 33.3331 19.5086V6.66699H29.9998V25.0002C25.3975 36.0458 30.6208 48.7311 41.6664 53.3334C52.7119 57.9356 65.3973 52.7123 69.9995 41.6668C72.2218 36.3335 72.2218 30.3335 69.9995 25.0002ZM62.4725 46.6288C55.1021 53.524 43.5374 53.1388 36.6422 45.7684C29.7471 38.398 30.1321 26.8333 37.5027 19.9382C43.6566 14.1809 52.9496 13.3782 59.9996 17.9953V26.6669H63.3329V20.7986C70.2281 28.1689 69.8431 39.7334 62.4725 46.6288Z" fill="#00AA71"/>
<path d="M69.9995 25.0002V11.667H66.6662V19.5086C65.6725 18.3207 64.555 17.2417 63.3329 16.2903V6.66699H59.9996V14.1319C56.9152 12.5122 53.4834 11.6663 49.9997 11.667C49.4363 11.667 48.8847 11.7086 48.333 11.752V0.000366211H44.9997V12.272C43.8618 12.5353 42.747 12.8903 41.6664 13.3336V10.0003H38.3331V15.0003H38.4997C36.5508 16.2215 34.807 17.743 33.3331 19.5086V6.66699H29.9998V25.0002C25.3975 36.0458 30.6208 48.7311 41.6664 53.3334C52.7119 57.9356 65.3973 52.7123 69.9995 41.6668C72.2218 36.3335 72.2218 30.3335 69.9995 25.0002ZM62.4725 46.6288C55.1021 53.524 43.5374 53.1388 36.6422 45.7684C29.7471 38.398 30.1321 26.8333 37.5027 19.9382C43.6566 14.1809 52.9496 13.3782 59.9996 17.9953V26.6669H63.3329V20.7986C70.2281 28.1689 69.8431 39.7334 62.4725 46.6288Z" fill="url(#paint3_linear)"/>
<path d="M63.3329 0.000366211H59.9996V3.33368H63.3329V0.000366211Z" fill="#00AA71"/>
<path d="M63.3329 0.000366211H59.9996V3.33368H63.3329V0.000366211Z" fill="url(#paint4_linear)"/>
<path d="M41.6664 3.33374H38.3331V6.66705H41.6664V3.33374Z" fill="#00AA71"/>
<path d="M41.6664 3.33374H38.3331V6.66705H41.6664V3.33374Z" fill="url(#paint5_linear)"/>
<path d="M89.9732 11.3891C89.8548 10.6897 89.3071 10.142 88.6078 10.0237C85.8917 9.57075 83.7632 7.44285 83.3095 4.72703C83.1559 3.81954 82.2957 3.20808 81.3882 3.36162C80.6889 3.47996 80.1412 4.02766 80.0228 4.72703C79.5691 7.44285 77.4405 9.57075 74.7245 10.0237C73.817 10.1772 73.2056 11.0374 73.3591 11.9449C73.4775 12.6443 74.0252 13.192 74.7245 13.3103C77.4405 13.7632 79.5691 15.8911 80.0228 18.6069C80.1764 19.5144 81.0366 20.1259 81.9441 19.9724C82.6434 19.854 83.1911 19.3063 83.3095 18.6069C83.7632 15.8911 85.8917 13.7632 88.6078 13.3103C89.5153 13.1568 90.1267 12.2966 89.9732 11.3891ZM81.6661 14.047C81.0164 13.1222 80.2109 12.3168 79.2862 11.667C80.2109 11.0172 81.0164 10.2118 81.6661 9.287C82.3159 10.2118 83.1213 11.0172 84.0461 11.667C83.1213 12.3168 82.3159 13.122 81.6661 14.047Z" fill="#00AA71"/>
<path d="M89.9732 11.3891C89.8548 10.6897 89.3071 10.142 88.6078 10.0237C85.8917 9.57075 83.7632 7.44285 83.3095 4.72703C83.1559 3.81954 82.2957 3.20808 81.3882 3.36162C80.6889 3.47996 80.1412 4.02766 80.0228 4.72703C79.5691 7.44285 77.4405 9.57075 74.7245 10.0237C73.817 10.1772 73.2056 11.0374 73.3591 11.9449C73.4775 12.6443 74.0252 13.192 74.7245 13.3103C77.4405 13.7632 79.5691 15.8911 80.0228 18.6069C80.1764 19.5144 81.0366 20.1259 81.9441 19.9724C82.6434 19.854 83.1911 19.3063 83.3095 18.6069C83.7632 15.8911 85.8917 13.7632 88.6078 13.3103C89.5153 13.1568 90.1267 12.2966 89.9732 11.3891ZM81.6661 14.047C81.0164 13.1222 80.2109 12.3168 79.2862 11.667C80.2109 11.0172 81.0164 10.2118 81.6661 9.287C82.3159 10.2118 83.1213 11.0172 84.0461 11.667C83.1213 12.3168 82.3159 13.122 81.6661 14.047Z" fill="url(#paint6_linear)"/>
<path d="M98.7769 71.4457C97.4771 69.5289 95.3235 68.367 93.0077 68.3333C91.8515 68.3341 90.7134 68.6204 89.6944 69.1666L70.7912 79.3465C72.7316 75.687 71.3379 71.1474 67.6783 69.207C66.5964 68.6335 65.3906 68.3335 64.1662 68.3333H45.6014C38.4583 62.551 28.2446 62.551 21.1015 68.3333H0V71.6666H19.9999V96.6664H0V99.9997H66.3146C67.96 100.002 69.5687 99.5147 70.9362 98.5997L96.886 81.2998C100.129 79.1007 100.976 74.6891 98.7769 71.4457ZM95.0377 78.5265L69.0879 95.8331C68.2666 96.3798 67.3012 96.67 66.3146 96.6664H23.3332V70.7899C29.4213 65.9956 38.0552 66.1954 43.9147 71.2666C44.217 71.5251 44.602 71.667 44.9997 71.6666H64.1662C66.4675 71.6666 68.3329 73.532 68.3329 75.8332C68.3329 78.1345 66.4675 79.9999 64.1662 79.9999H46.6664C45.746 79.9999 44.9997 80.7461 44.9997 81.6665C44.9997 82.5869 45.746 83.3332 46.6664 83.3332H69.9995C70.2752 83.3334 70.5466 83.2652 70.7895 83.1348L91.2761 72.1032C93.1186 71.1818 95.3592 71.9285 96.2806 73.7707C97.1171 75.4434 96.5856 77.477 95.0377 78.5265Z" fill="#00AA71"/>
<path d="M98.7769 71.4457C97.4771 69.5289 95.3235 68.367 93.0077 68.3333C91.8515 68.3341 90.7134 68.6204 89.6944 69.1666L70.7912 79.3465C72.7316 75.687 71.3379 71.1474 67.6783 69.207C66.5964 68.6335 65.3906 68.3335 64.1662 68.3333H45.6014C38.4583 62.551 28.2446 62.551 21.1015 68.3333H0V71.6666H19.9999V96.6664H0V99.9997H66.3146C67.96 100.002 69.5687 99.5147 70.9362 98.5997L96.886 81.2998C100.129 79.1007 100.976 74.6891 98.7769 71.4457ZM95.0377 78.5265L69.0879 95.8331C68.2666 96.3798 67.3012 96.67 66.3146 96.6664H23.3332V70.7899C29.4213 65.9956 38.0552 66.1954 43.9147 71.2666C44.217 71.5251 44.602 71.667 44.9997 71.6666H64.1662C66.4675 71.6666 68.3329 73.532 68.3329 75.8332C68.3329 78.1345 66.4675 79.9999 64.1662 79.9999H46.6664C45.746 79.9999 44.9997 80.7461 44.9997 81.6665C44.9997 82.5869 45.746 83.3332 46.6664 83.3332H69.9995C70.2752 83.3334 70.5466 83.2652 70.7895 83.1348L91.2761 72.1032C93.1186 71.1818 95.3592 71.9285 96.2806 73.7707C97.1171 75.4434 96.5856 77.477 95.0377 78.5265Z" fill="url(#paint7_linear)"/>
<path d="M11.6666 83.3333C8.90515 83.3333 6.66663 85.5718 6.66663 88.3332C6.66663 91.0947 8.90515 93.3332 11.6666 93.3332C14.428 93.3332 16.6666 91.0947 16.6666 88.3332C16.6666 85.5718 14.428 83.3333 11.6666 83.3333ZM11.6666 89.9999C10.7462 89.9999 9.99994 89.2536 9.99994 88.3332C9.99994 87.4128 10.7462 86.6666 11.6666 86.6666C12.587 86.6666 13.3333 87.4128 13.3333 88.3332C13.3333 89.2536 12.587 89.9999 11.6666 89.9999Z" fill="#00AA71"/>
<path d="M11.6666 83.3333C8.90515 83.3333 6.66663 85.5718 6.66663 88.3332C6.66663 91.0947 8.90515 93.3332 11.6666 93.3332C14.428 93.3332 16.6666 91.0947 16.6666 88.3332C16.6666 85.5718 14.428 83.3333 11.6666 83.3333ZM11.6666 89.9999C10.7462 89.9999 9.99994 89.2536 9.99994 88.3332C9.99994 87.4128 10.7462 86.6666 11.6666 86.6666C12.587 86.6666 13.3333 87.4128 13.3333 88.3332C13.3333 89.2536 12.587 89.9999 11.6666 89.9999Z" fill="url(#paint8_linear)"/>
</g>
<defs>
<linearGradient id="paint0_linear" x1="57.4996" y1="33.3336" x2="57.4996" y2="48.3335" gradientUnits="userSpaceOnUse">
<stop stop-color="#00D461"/>
<stop offset="1" stop-color="#00AB70"/>
</linearGradient>
<linearGradient id="paint1_linear" x1="42.4997" y1="18.3336" x2="42.4997" y2="33.3335" gradientUnits="userSpaceOnUse">
<stop stop-color="#00D461"/>
<stop offset="1" stop-color="#00AB70"/>
</linearGradient>
<linearGradient id="paint2_linear" x1="49.9997" y1="25.0002" x2="49.9997" y2="43.3335" gradientUnits="userSpaceOnUse">
<stop stop-color="#00D461"/>
<stop offset="1" stop-color="#00AB70"/>
</linearGradient>
<linearGradient id="paint3_linear" x1="49.9969" y1="0.000366211" x2="49.9969" y2="55.0056" gradientUnits="userSpaceOnUse">
<stop stop-color="#00D461"/>
<stop offset="1" stop-color="#00AB70"/>
</linearGradient>
<linearGradient id="paint4_linear" x1="61.6663" y1="0.000366211" x2="61.6663" y2="3.33368" gradientUnits="userSpaceOnUse">
<stop stop-color="#00D461"/>
<stop offset="1" stop-color="#00AB70"/>
</linearGradient>
<linearGradient id="paint5_linear" x1="39.9998" y1="3.33374" x2="39.9998" y2="6.66705" gradientUnits="userSpaceOnUse">
<stop stop-color="#00D461"/>
<stop offset="1" stop-color="#00AB70"/>
</linearGradient>
<linearGradient id="paint6_linear" x1="81.6661" y1="3.33801" x2="81.6661" y2="19.996" gradientUnits="userSpaceOnUse">
<stop stop-color="#00D461"/>
<stop offset="1" stop-color="#00AB70"/>
</linearGradient>
<linearGradient id="paint7_linear" x1="50" y1="63.9966" x2="50" y2="99.9997" gradientUnits="userSpaceOnUse">
<stop stop-color="#00D461"/>
<stop offset="1" stop-color="#00AB70"/>
</linearGradient>
<linearGradient id="paint8_linear" x1="11.6666" y1="83.3333" x2="11.6666" y2="93.3332" gradientUnits="userSpaceOnUse">
<stop stop-color="#00D461"/>
<stop offset="1" stop-color="#00AB70"/>
</linearGradient>
<clipPath id="clip0">
<rect width="100" height="100" fill="white"/>
</clipPath>
</defs>
</svg>
