<svg width="146" height="101" viewBox="0 0 146 101" fill="none" xmlns="http://www.w3.org/2000/svg">
<g clip-path="url(#clip0)">
<path d="M71.7213 9.57445L71.1699 11.2673C70.8737 10.9092 70.5509 10.574 70.2042 10.2646L71.3224 7.6923C71.4511 7.39695 71.3159 7.05319 71.0204 6.92459L66.7411 5.06343C66.4453 4.945 66.1086 5.07769 65.9731 5.36602L64.8549 7.93834C64.3923 7.89631 63.9271 7.88923 63.4635 7.91729L62.434 5.30461C62.316 5.00489 61.9772 4.85764 61.6775 4.97573L57.3357 6.68647C57.036 6.80456 56.8887 7.14331 57.0068 7.44303L58.0362 10.0557C57.8107 10.2424 57.5948 10.4391 57.39 10.6433C57.2678 10.766 57.1482 10.8921 57.033 11.0215L54.4607 9.90333C54.1654 9.77472 53.8216 9.90993 53.693 10.2054L51.8323 14.4858C51.7037 14.7812 51.8389 15.1249 52.1343 15.2535L54.7072 16.372C54.6911 16.5444 54.6805 16.7179 54.6741 16.891C54.6626 17.1802 54.6677 17.4716 54.6847 17.7646L52.0742 18.7931C51.7745 18.9112 51.6272 19.25 51.7453 19.5497L53.4561 23.8915C53.5742 24.1912 53.9129 24.3385 54.2126 24.2204L56.8253 23.191C57.1214 23.5491 57.4442 23.8842 57.7909 24.1936L56.6727 26.7659C56.5441 27.0613 56.6793 27.405 56.9747 27.5336L61.2552 29.3944C61.5509 29.5128 61.8877 29.3801 62.0232 29.0918L63.1414 26.5195C63.3138 26.5355 63.4873 26.5462 63.6604 26.5526C63.9495 26.564 64.241 26.5589 64.534 26.5419L65.5621 29.1514C65.6802 29.4511 66.019 29.5983 66.3187 29.4802L70.6605 27.7695C70.9602 27.6514 71.1074 27.3127 70.9893 27.0129L69.9599 24.4003C70.318 24.1041 70.6531 23.7813 70.9626 23.4346L71.3908 25.7237C71.6861 25.8524 72.0299 25.7172 72.1585 25.4217L74.0192 21.1413C74.1478 20.8459 74.0126 20.5022 73.7172 20.3736L73.2884 18.0842C73.33 17.6221 73.3366 17.1576 73.3083 16.6945L73.8597 15.0017C74.1595 14.8836 74.3067 14.5448 74.1886 14.2451L72.4779 9.90333C72.3598 9.60361 72.021 9.45636 71.7213 9.57445ZM72.8893 14.1301L72.4779 15.7677C72.2338 15.8638 72.0839 16.1109 72.1115 16.3717C72.1835 17.0351 72.1736 17.7048 72.0821 18.3658C72.0454 18.6255 72.1867 18.8777 72.4272 18.9822L72.7182 21.2112L71.3224 24.4221L71.0317 22.1923C70.7912 22.0878 70.5105 22.1565 70.3456 22.3605C69.9247 22.8783 69.4417 23.3423 68.9075 23.7422C68.698 23.8999 68.6196 24.1781 68.7158 24.4221L69.6911 26.8975L66.4321 28.1816L65.4578 25.7089C65.3616 25.4648 65.1142 25.3149 64.8533 25.3427C64.47 25.3835 64.0843 25.3974 63.6991 25.3843C63.4179 25.3744 63.1374 25.3497 62.8587 25.3104C62.599 25.2738 62.3468 25.415 62.2423 25.6555L61.1842 28.0907L57.9733 26.6949L59.0333 24.2628C59.1378 24.0223 59.069 23.7415 58.8651 23.5766C58.3473 23.1557 57.8832 22.6728 57.4834 22.1385C57.3256 21.9267 57.0451 21.8474 56.7997 21.9452L54.327 22.9195L53.044 19.6631L55.5166 18.6889C55.7608 18.5927 55.9107 18.3453 55.8829 18.0844C55.842 17.7011 55.8281 17.3154 55.8413 16.9302C55.8512 16.6489 55.8759 16.3684 55.9152 16.0897C55.9518 15.8301 55.8106 15.5779 55.5701 15.4733L53.1349 14.4152L54.5307 11.2043L56.9655 12.2632C57.206 12.3678 57.4868 12.299 57.6517 12.0951C57.8286 11.8763 58.0169 11.6669 58.2158 11.4678C58.4885 11.1953 58.78 10.9424 59.0881 10.7109C59.2979 10.5532 59.3766 10.2749 59.2804 10.0307L58.3061 7.55807L61.5624 6.27502L62.5367 8.74767C62.6328 8.99172 62.8799 9.14163 63.1407 9.11411C63.8041 9.04207 64.4738 9.05193 65.1348 9.14348C65.3944 9.18013 65.6466 9.0389 65.7512 8.79841L66.8093 6.36324L70.0202 7.75901L68.9613 10.1939C68.8567 10.4344 68.9255 10.7151 69.1294 10.88C69.6472 11.3009 70.1113 11.7838 70.5111 12.3181C70.6689 12.5276 70.9471 12.606 71.1911 12.5098L71.6052 10.871L72.8893 14.1301Z" fill="#00AA71"/>
<path d="M71.7213 9.57445L71.1699 11.2673C70.8737 10.9092 70.5509 10.574 70.2042 10.2646L71.3224 7.6923C71.4511 7.39695 71.3159 7.05319 71.0204 6.92459L66.7411 5.06343C66.4453 4.945 66.1086 5.07769 65.9731 5.36602L64.8549 7.93834C64.3923 7.89631 63.9271 7.88923 63.4635 7.91729L62.434 5.30461C62.316 5.00489 61.9772 4.85764 61.6775 4.97573L57.3357 6.68647C57.036 6.80456 56.8887 7.14331 57.0068 7.44303L58.0362 10.0557C57.8107 10.2424 57.5948 10.4391 57.39 10.6433C57.2678 10.766 57.1482 10.8921 57.033 11.0215L54.4607 9.90333C54.1654 9.77472 53.8216 9.90993 53.693 10.2054L51.8323 14.4858C51.7037 14.7812 51.8389 15.1249 52.1343 15.2535L54.7072 16.372C54.6911 16.5444 54.6805 16.7179 54.6741 16.891C54.6626 17.1802 54.6677 17.4716 54.6847 17.7646L52.0742 18.7931C51.7745 18.9112 51.6272 19.25 51.7453 19.5497L53.4561 23.8915C53.5742 24.1912 53.9129 24.3385 54.2126 24.2204L56.8253 23.191C57.1214 23.5491 57.4442 23.8842 57.7909 24.1936L56.6727 26.7659C56.5441 27.0613 56.6793 27.405 56.9747 27.5336L61.2552 29.3944C61.5509 29.5128 61.8877 29.3801 62.0232 29.0918L63.1414 26.5195C63.3138 26.5355 63.4873 26.5462 63.6604 26.5526C63.9495 26.564 64.241 26.5589 64.534 26.5419L65.5621 29.1514C65.6802 29.4511 66.019 29.5983 66.3187 29.4802L70.6605 27.7695C70.9602 27.6514 71.1074 27.3127 70.9893 27.0129L69.9599 24.4003C70.318 24.1041 70.6531 23.7813 70.9626 23.4346L71.3908 25.7237C71.6861 25.8524 72.0299 25.7172 72.1585 25.4217L74.0192 21.1413C74.1478 20.8459 74.0126 20.5022 73.7172 20.3736L73.2884 18.0842C73.33 17.6221 73.3366 17.1576 73.3083 16.6945L73.8597 15.0017C74.1595 14.8836 74.3067 14.5448 74.1886 14.2451L72.4779 9.90333C72.3598 9.60361 72.021 9.45636 71.7213 9.57445ZM72.8893 14.1301L72.4779 15.7677C72.2338 15.8638 72.0839 16.1109 72.1115 16.3717C72.1835 17.0351 72.1736 17.7048 72.0821 18.3658C72.0454 18.6255 72.1867 18.8777 72.4272 18.9822L72.7182 21.2112L71.3224 24.4221L71.0317 22.1923C70.7912 22.0878 70.5105 22.1565 70.3456 22.3605C69.9247 22.8783 69.4417 23.3423 68.9075 23.7422C68.698 23.8999 68.6196 24.1781 68.7158 24.4221L69.6911 26.8975L66.4321 28.1816L65.4578 25.7089C65.3616 25.4648 65.1142 25.3149 64.8533 25.3427C64.47 25.3835 64.0843 25.3974 63.6991 25.3843C63.4179 25.3744 63.1374 25.3497 62.8587 25.3104C62.599 25.2738 62.3468 25.415 62.2423 25.6555L61.1842 28.0907L57.9733 26.6949L59.0333 24.2628C59.1378 24.0223 59.069 23.7415 58.8651 23.5766C58.3473 23.1557 57.8832 22.6728 57.4834 22.1385C57.3256 21.9267 57.0451 21.8474 56.7997 21.9452L54.327 22.9195L53.044 19.6631L55.5166 18.6889C55.7608 18.5927 55.9107 18.3453 55.8829 18.0844C55.842 17.7011 55.8281 17.3154 55.8413 16.9302C55.8512 16.6489 55.8759 16.3684 55.9152 16.0897C55.9518 15.8301 55.8106 15.5779 55.5701 15.4733L53.1349 14.4152L54.5307 11.2043L56.9655 12.2632C57.206 12.3678 57.4868 12.299 57.6517 12.0951C57.8286 11.8763 58.0169 11.6669 58.2158 11.4678C58.4885 11.1953 58.78 10.9424 59.0881 10.7109C59.2979 10.5532 59.3766 10.2749 59.2804 10.0307L58.3061 7.55807L61.5624 6.27502L62.5367 8.74767C62.6328 8.99172 62.8799 9.14163 63.1407 9.11411C63.8041 9.04207 64.4738 9.05193 65.1348 9.14348C65.3944 9.18013 65.6466 9.0389 65.7512 8.79841L66.8093 6.36324L70.0202 7.75901L68.9613 10.1939C68.8567 10.4344 68.9255 10.7151 69.1294 10.88C69.6472 11.3009 70.1113 11.7838 70.5111 12.3181C70.6689 12.5276 70.9471 12.606 71.1911 12.5098L71.6052 10.871L72.8893 14.1301Z" fill="url(#paint0_linear)"/>
<path d="M61.645 11.2583C58.3478 12.5575 56.7281 16.2834 58.0272 19.5806C59.3264 22.8777 63.0524 24.4974 66.3495 23.1983C69.6466 21.8992 71.2663 18.1732 69.9672 14.876C68.6648 11.5821 64.942 9.96373 61.645 11.2583ZM65.9218 22.1128C63.2242 23.1757 60.1756 21.8505 59.1127 19.1529C58.0498 16.4552 59.375 13.4067 62.0726 12.3438C64.7703 11.2809 67.8188 12.606 68.8817 15.3037C69.9408 18.0013 68.6168 21.0472 65.9218 22.1128Z" fill="#00AA71"/>
<path d="M61.645 11.2583C58.3478 12.5575 56.7281 16.2834 58.0272 19.5806C59.3264 22.8777 63.0524 24.4974 66.3495 23.1983C69.6466 21.8992 71.2663 18.1732 69.9672 14.876C68.6648 11.5821 64.942 9.96373 61.645 11.2583ZM65.9218 22.1128C63.2242 23.1757 60.1756 21.8505 59.1127 19.1529C58.0498 16.4552 59.375 13.4067 62.0726 12.3438C64.7703 11.2809 67.8188 12.606 68.8817 15.3037C69.9408 18.0013 68.6168 21.0472 65.9218 22.1128Z" fill="url(#paint1_linear)"/>
</g>
<path d="M86.0008 15.0007H79.3342C78.4138 15.0007 77.6676 15.747 77.6676 16.6674V23.3339C77.6676 24.2543 78.4138 25.0006 79.3342 25.0006H86.0008C86.9212 25.0006 87.6675 24.2543 87.6675 23.3339V16.6674C87.6675 15.7468 86.9212 15.0007 86.0008 15.0007ZM84.3342 21.6673H81.0009V18.334H84.3342V21.6673Z" fill="#00AA71"/>
<path d="M86.0008 15.0007H79.3342C78.4138 15.0007 77.6676 15.747 77.6676 16.6674V23.3339C77.6676 24.2543 78.4138 25.0006 79.3342 25.0006H86.0008C86.9212 25.0006 87.6675 24.2543 87.6675 23.3339V16.6674C87.6675 15.7468 86.9212 15.0007 86.0008 15.0007ZM84.3342 21.6673H81.0009V18.334H84.3342V21.6673Z" fill="url(#paint2_linear)"/>
<path d="M99.334 15.0007H92.6674C91.747 15.0007 91.0007 15.747 91.0007 16.6674V23.3339C91.0007 24.2543 91.747 25.0006 92.6674 25.0006H99.334C100.254 25.0006 101.001 24.2543 101.001 23.3339V16.6674C101.001 15.7468 100.254 15.0007 99.334 15.0007ZM97.6673 21.6673H94.334V18.334H97.6673V21.6673Z" fill="#00AA71"/>
<path d="M99.334 15.0007H92.6674C91.747 15.0007 91.0007 15.747 91.0007 16.6674V23.3339C91.0007 24.2543 91.747 25.0006 92.6674 25.0006H99.334C100.254 25.0006 101.001 24.2543 101.001 23.3339V16.6674C101.001 15.7468 100.254 15.0007 99.334 15.0007ZM97.6673 21.6673H94.334V18.334H97.6673V21.6673Z" fill="url(#paint3_linear)"/>
<path d="M112.667 15.0007H106.001C105.08 15.0007 104.334 15.747 104.334 16.6674V23.3339C104.334 24.2543 105.08 25.0006 106.001 25.0006H112.667C113.587 25.0006 114.334 24.2543 114.334 23.3339V16.6674C114.334 15.7468 113.587 15.0007 112.667 15.0007ZM111 21.6673H107.667V18.334H111V21.6673Z" fill="#00AA71"/>
<path d="M112.667 15.0007H106.001C105.08 15.0007 104.334 15.747 104.334 16.6674V23.3339C104.334 24.2543 105.08 25.0006 106.001 25.0006H112.667C113.587 25.0006 114.334 24.2543 114.334 23.3339V16.6674C114.334 15.7468 113.587 15.0007 112.667 15.0007ZM111 21.6673H107.667V18.334H111V21.6673Z" fill="url(#paint4_linear)"/>
<path d="M86.0008 28.3339H79.3342C78.4138 28.3339 77.6676 29.0801 77.6676 30.0005V36.6671C77.6676 37.5875 78.4138 38.3337 79.3342 38.3337H86.0008C86.9212 38.3337 87.6675 37.5875 87.6675 36.6671V30.0005C87.6675 29.0799 86.9212 28.3339 86.0008 28.3339ZM84.3342 35.0004H81.0009V31.6671H84.3342V35.0004Z" fill="#00AA71"/>
<path d="M86.0008 28.3339H79.3342C78.4138 28.3339 77.6676 29.0801 77.6676 30.0005V36.6671C77.6676 37.5875 78.4138 38.3337 79.3342 38.3337H86.0008C86.9212 38.3337 87.6675 37.5875 87.6675 36.6671V30.0005C87.6675 29.0799 86.9212 28.3339 86.0008 28.3339ZM84.3342 35.0004H81.0009V31.6671H84.3342V35.0004Z" fill="url(#paint5_linear)"/>
<path d="M99.334 28.3339H92.6674C91.747 28.3339 91.0007 29.0801 91.0007 30.0005V36.6671C91.0007 37.5875 91.747 38.3337 92.6674 38.3337H99.334C100.254 38.3337 101.001 37.5875 101.001 36.6671V30.0005C101.001 29.0799 100.254 28.3339 99.334 28.3339ZM97.6673 35.0004H94.334V31.6671H97.6673V35.0004Z" fill="#00AA71"/>
<path d="M99.334 28.3339H92.6674C91.747 28.3339 91.0007 29.0801 91.0007 30.0005V36.6671C91.0007 37.5875 91.747 38.3337 92.6674 38.3337H99.334C100.254 38.3337 101.001 37.5875 101.001 36.6671V30.0005C101.001 29.0799 100.254 28.3339 99.334 28.3339ZM97.6673 35.0004H94.334V31.6671H97.6673V35.0004Z" fill="url(#paint6_linear)"/>
<path d="M112.667 28.3339H106.001C105.08 28.3339 104.334 29.0801 104.334 30.0005V36.6671C104.334 37.5875 105.08 38.3337 106.001 38.3337H112.667C113.587 38.3337 114.334 37.5875 114.334 36.6671V30.0005C114.334 29.0799 113.587 28.3339 112.667 28.3339ZM111 35.0004H107.667V31.6671H111V35.0004Z" fill="#00AA71"/>
<path d="M112.667 28.3339H106.001C105.08 28.3339 104.334 29.0801 104.334 30.0005V36.6671C104.334 37.5875 105.08 38.3337 106.001 38.3337H112.667C113.587 38.3337 114.334 37.5875 114.334 36.6671V30.0005C114.334 29.0799 113.587 28.3339 112.667 28.3339ZM111 35.0004H107.667V31.6671H111V35.0004Z" fill="url(#paint7_linear)"/>
<path d="M86.0008 41.667H79.3342C78.4138 41.667 77.6676 42.4132 77.6676 43.3336V50.0002C77.6676 50.9206 78.4138 51.6668 79.3342 51.6668H86.0008C86.9212 51.6668 87.6675 50.9206 87.6675 50.0002V43.3336C87.6675 42.413 86.9212 41.667 86.0008 41.667ZM84.3342 48.3336H81.0009V45.0003H84.3342V48.3336Z" fill="#00AA71"/>
<path d="M86.0008 41.667H79.3342C78.4138 41.667 77.6676 42.4132 77.6676 43.3336V50.0002C77.6676 50.9206 78.4138 51.6668 79.3342 51.6668H86.0008C86.9212 51.6668 87.6675 50.9206 87.6675 50.0002V43.3336C87.6675 42.413 86.9212 41.667 86.0008 41.667ZM84.3342 48.3336H81.0009V45.0003H84.3342V48.3336Z" fill="url(#paint8_linear)"/>
<path d="M99.334 41.667H92.6674C91.747 41.667 91.0007 42.4132 91.0007 43.3336V50.0002C91.0007 50.9206 91.747 51.6668 92.6674 51.6668H99.334C100.254 51.6668 101.001 50.9206 101.001 50.0002V43.3336C101.001 42.413 100.254 41.667 99.334 41.667ZM97.6673 48.3336H94.334V45.0003H97.6673V48.3336Z" fill="#00AA71"/>
<path d="M99.334 41.667H92.6674C91.747 41.667 91.0007 42.4132 91.0007 43.3336V50.0002C91.0007 50.9206 91.747 51.6668 92.6674 51.6668H99.334C100.254 51.6668 101.001 50.9206 101.001 50.0002V43.3336C101.001 42.413 100.254 41.667 99.334 41.667ZM97.6673 48.3336H94.334V45.0003H97.6673V48.3336Z" fill="url(#paint9_linear)"/>
<path d="M112.667 41.667H106.001C105.08 41.667 104.334 42.4132 104.334 43.3336V50.0002C104.334 50.9206 105.08 51.6668 106.001 51.6668H112.667C113.587 51.6668 114.334 50.9206 114.334 50.0002V43.3336C114.334 42.413 113.587 41.667 112.667 41.667ZM111 48.3336H107.667V45.0003H111V48.3336Z" fill="#00AA71"/>
<path d="M112.667 41.667H106.001C105.08 41.667 104.334 42.4132 104.334 43.3336V50.0002C104.334 50.9206 105.08 51.6668 106.001 51.6668H112.667C113.587 51.6668 114.334 50.9206 114.334 50.0002V43.3336C114.334 42.413 113.587 41.667 112.667 41.667ZM111 48.3336H107.667V45.0003H111V48.3336Z" fill="url(#paint10_linear)"/>
<path d="M86.0008 55.0001H79.3342C78.4138 55.0001 77.6676 55.7464 77.6676 56.6668V63.3333C77.6676 64.2537 78.4138 65 79.3342 65H86.0008C86.9212 65 87.6675 64.2537 87.6675 63.3333V56.6668C87.6675 55.7462 86.9212 55.0001 86.0008 55.0001ZM84.3342 61.6667H81.0009V58.3334H84.3342V61.6667Z" fill="#00AA71"/>
<path d="M86.0008 55.0001H79.3342C78.4138 55.0001 77.6676 55.7464 77.6676 56.6668V63.3333C77.6676 64.2537 78.4138 65 79.3342 65H86.0008C86.9212 65 87.6675 64.2537 87.6675 63.3333V56.6668C87.6675 55.7462 86.9212 55.0001 86.0008 55.0001ZM84.3342 61.6667H81.0009V58.3334H84.3342V61.6667Z" fill="url(#paint11_linear)"/>
<path d="M99.334 55.0001H92.6674C91.747 55.0001 91.0007 55.7464 91.0007 56.6668V63.3333C91.0007 64.2537 91.747 65 92.6674 65H99.334C100.254 65 101.001 64.2537 101.001 63.3333V56.6668C101.001 55.7462 100.254 55.0001 99.334 55.0001ZM97.6673 61.6667H94.334V58.3334H97.6673V61.6667Z" fill="#00AA71"/>
<path d="M99.334 55.0001H92.6674C91.747 55.0001 91.0007 55.7464 91.0007 56.6668V63.3333C91.0007 64.2537 91.747 65 92.6674 65H99.334C100.254 65 101.001 64.2537 101.001 63.3333V56.6668C101.001 55.7462 100.254 55.0001 99.334 55.0001ZM97.6673 61.6667H94.334V58.3334H97.6673V61.6667Z" fill="url(#paint12_linear)"/>
<path d="M112.667 55.0001H106.001C105.08 55.0001 104.334 55.7464 104.334 56.6668V63.3333C104.334 64.2537 105.08 65 106.001 65H112.667C113.587 65 114.334 64.2537 114.334 63.3333V56.6668C114.334 55.7462 113.587 55.0001 112.667 55.0001ZM111 61.6667H107.667V58.3334H111V61.6667Z" fill="#00AA71"/>
<path d="M112.667 55.0001H106.001C105.08 55.0001 104.334 55.7464 104.334 56.6668V63.3333C104.334 64.2537 105.08 65 106.001 65H112.667C113.587 65 114.334 64.2537 114.334 63.3333V56.6668C114.334 55.7462 113.587 55.0001 112.667 55.0001ZM111 61.6667H107.667V58.3334H111V61.6667Z" fill="url(#paint13_linear)"/>
<path d="M86.0008 68.3333H79.3342C78.4138 68.3333 77.6676 69.0795 77.6676 69.9999V76.6665C77.6676 77.5869 78.4138 78.3331 79.3342 78.3331H86.0008C86.9212 78.3331 87.6675 77.5869 87.6675 76.6665V69.9999C87.6675 69.0793 86.9212 68.3333 86.0008 68.3333ZM84.3342 74.9998H81.0009V71.6665H84.3342V74.9998Z" fill="#00AA71"/>
<path d="M86.0008 68.3333H79.3342C78.4138 68.3333 77.6676 69.0795 77.6676 69.9999V76.6665C77.6676 77.5869 78.4138 78.3331 79.3342 78.3331H86.0008C86.9212 78.3331 87.6675 77.5869 87.6675 76.6665V69.9999C87.6675 69.0793 86.9212 68.3333 86.0008 68.3333ZM84.3342 74.9998H81.0009V71.6665H84.3342V74.9998Z" fill="url(#paint14_linear)"/>
<path d="M99.334 68.3333H92.6674C91.747 68.3333 91.0007 69.0795 91.0007 69.9999V76.6665C91.0007 77.5869 91.747 78.3331 92.6674 78.3331H99.334C100.254 78.3331 101.001 77.5869 101.001 76.6665V69.9999C101.001 69.0793 100.254 68.3333 99.334 68.3333ZM97.6673 74.9998H94.334V71.6665H97.6673V74.9998Z" fill="#00AA71"/>
<path d="M99.334 68.3333H92.6674C91.747 68.3333 91.0007 69.0795 91.0007 69.9999V76.6665C91.0007 77.5869 91.747 78.3331 92.6674 78.3331H99.334C100.254 78.3331 101.001 77.5869 101.001 76.6665V69.9999C101.001 69.0793 100.254 68.3333 99.334 68.3333ZM97.6673 74.9998H94.334V71.6665H97.6673V74.9998Z" fill="url(#paint15_linear)"/>
<path d="M112.667 68.3333H106.001C105.08 68.3333 104.334 69.0795 104.334 69.9999V76.6665C104.334 77.5869 105.08 78.3331 106.001 78.3331H112.667C113.587 78.3331 114.334 77.5869 114.334 76.6665V69.9999C114.334 69.0793 113.587 68.3333 112.667 68.3333ZM111 74.9998H107.667V71.6665H111V74.9998Z" fill="#00AA71"/>
<path d="M112.667 68.3333H106.001C105.08 68.3333 104.334 69.0795 104.334 69.9999V76.6665C104.334 77.5869 105.08 78.3331 106.001 78.3331H112.667C113.587 78.3331 114.334 77.5869 114.334 76.6665V69.9999C114.334 69.0793 113.587 68.3333 112.667 68.3333ZM111 74.9998H107.667V71.6665H111V74.9998Z" fill="url(#paint16_linear)"/>
<path d="M137.667 96.6662V93.1879C139.367 92.904 140.965 92.1831 142.303 91.0963C146.018 88.0786 147.073 82.8527 144.822 78.6298C143.719 76.8273 143.39 74.6563 143.91 72.6082C144.41 71.0914 144.468 69.4635 144.077 67.9149C143.324 64.9298 140.973 62.6111 137.978 61.8984C133.508 60.8055 128.998 63.5438 127.905 68.0143C127.569 69.3872 127.588 70.823 127.96 72.1863C128.589 74.2351 128.366 76.4505 127.342 78.3329C124.579 83.1147 126.216 89.2313 130.998 91.9942C131.889 92.5096 132.856 92.884 133.862 93.1044C134.019 93.1377 134.177 93.1527 134.334 93.1777V96.666H121.001V8.33394C121.001 7.41354 120.254 6.6673 119.334 6.6673H114.334V1.66737C114.334 0.746971 113.588 0.000732422 112.667 0.000732422H79.3345C78.4141 0.000732422 77.6679 0.746971 77.6679 1.66737V6.6673H72.668C71.7476 6.6673 71.0013 7.41354 71.0013 8.33394V96.666C62.6681 96.666 54.3332 96.5 46 96.5V99.5L146 99.9991V96.6658L137.667 96.6662ZM81.001 3.33423H111.001V6.66751H81.001V3.33423ZM94.3341 96.6662H87.6675V86.6663H94.3341V96.6662ZM104.334 96.6662H97.6674V86.6663H104.334V96.6662ZM117.667 96.6662H107.667V84.9997C107.667 84.0793 106.921 83.3331 106.001 83.3331H86.0009C85.0805 83.3331 84.3343 84.0793 84.3343 84.9997V96.6662H74.3344V10.0008H117.667V96.6662ZM134.334 89.7846C130.776 88.8767 128.628 85.2566 129.536 81.6989C129.687 81.1068 129.919 80.5385 130.225 80.0098C131.703 77.3536 132.045 74.2134 131.174 71.3016C131.058 70.8774 131 70.4395 131 69.9999C130.997 68.4722 131.695 67.0275 132.895 66.0816C133.772 65.3783 134.864 64.9967 135.988 65C136.404 65.0004 136.819 65.0485 137.223 65.1433C139.896 65.8106 141.522 68.5183 140.855 71.1911C140.825 71.3132 140.79 71.4339 140.75 71.5532C139.925 74.4692 140.335 77.5965 141.883 80.2014C142.402 81.1637 142.671 82.2402 142.667 83.3331C142.673 86.3736 140.613 89.0298 137.667 89.7813V69.9999H134.334V89.7846Z" fill="#00AA71"/>
<path d="M137.667 96.6662V93.1879C139.367 92.904 140.965 92.1831 142.303 91.0963C146.018 88.0786 147.073 82.8527 144.822 78.6298C143.719 76.8273 143.39 74.6563 143.91 72.6082C144.41 71.0914 144.468 69.4635 144.077 67.9149C143.324 64.9298 140.973 62.6111 137.978 61.8984C133.508 60.8055 128.998 63.5438 127.905 68.0143C127.569 69.3872 127.588 70.823 127.96 72.1863C128.589 74.2351 128.366 76.4505 127.342 78.3329C124.579 83.1147 126.216 89.2313 130.998 91.9942C131.889 92.5096 132.856 92.884 133.862 93.1044C134.019 93.1377 134.177 93.1527 134.334 93.1777V96.666H121.001V8.33394C121.001 7.41354 120.254 6.6673 119.334 6.6673H114.334V1.66737C114.334 0.746971 113.588 0.000732422 112.667 0.000732422H79.3345C78.4141 0.000732422 77.6679 0.746971 77.6679 1.66737V6.6673H72.668C71.7476 6.6673 71.0013 7.41354 71.0013 8.33394V96.666C62.6681 96.666 54.3332 96.5 46 96.5V99.5L146 99.9991V96.6658L137.667 96.6662ZM81.001 3.33423H111.001V6.66751H81.001V3.33423ZM94.3341 96.6662H87.6675V86.6663H94.3341V96.6662ZM104.334 96.6662H97.6674V86.6663H104.334V96.6662ZM117.667 96.6662H107.667V84.9997C107.667 84.0793 106.921 83.3331 106.001 83.3331H86.0009C85.0805 83.3331 84.3343 84.0793 84.3343 84.9997V96.6662H74.3344V10.0008H117.667V96.6662ZM134.334 89.7846C130.776 88.8767 128.628 85.2566 129.536 81.6989C129.687 81.1068 129.919 80.5385 130.225 80.0098C131.703 77.3536 132.045 74.2134 131.174 71.3016C131.058 70.8774 131 70.4395 131 69.9999C130.997 68.4722 131.695 67.0275 132.895 66.0816C133.772 65.3783 134.864 64.9967 135.988 65C136.404 65.0004 136.819 65.0485 137.223 65.1433C139.896 65.8106 141.522 68.5183 140.855 71.1911C140.825 71.3132 140.79 71.4339 140.75 71.5532C139.925 74.4692 140.335 77.5965 141.883 80.2014C142.402 81.1637 142.671 82.2402 142.667 83.3331C142.673 86.3736 140.613 89.0298 137.667 89.7813V69.9999H134.334V89.7846Z" fill="url(#paint17_linear)"/>
<path d="M72.7331 45.2667H68.6354C68.3222 44.3075 67.9368 43.3735 67.4827 42.4724L71.7894 38.1657C72.2844 37.6714 72.2848 36.8693 71.7904 36.3743L71.7894 36.3734L64.6264 29.2079C64.1232 28.7332 63.3373 28.7332 62.8341 29.2079L58.5274 33.5145C57.6263 33.0614 56.6922 32.6768 55.7331 32.3644V26.2667C55.7331 25.5671 55.166 25 54.4665 25H44.3331C43.6336 25 43.0665 25.5671 43.0665 26.2667V32.3644C42.4623 32.562 41.8695 32.7875 41.2931 33.037C40.9486 33.1877 40.6066 33.3473 40.2709 33.5171L35.9643 29.2104C35.47 28.7154 34.6678 28.715 34.1729 29.2095L34.1719 29.2104L27.0064 36.3759C26.5115 36.8702 26.511 37.6724 27.0055 38.1673L27.0064 38.1683L31.3131 42.4749C31.1433 42.8106 30.9837 43.1526 30.833 43.4971C30.5797 44.0722 30.358 44.665 30.1591 45.2705H24.0665C23.367 45.2705 22.7998 45.8376 22.7998 46.5371V56.6705C22.7998 57.37 23.367 57.9371 24.0665 57.9371H30.1642C30.4774 58.8963 30.8628 59.8303 31.3169 60.7314L27.0102 65.0381C26.5153 65.5324 26.5148 66.3345 27.0093 66.8294L27.0102 66.8304L34.1757 73.9959C34.6789 74.4706 35.4649 74.4706 35.9681 73.9959L40.2747 69.6893C40.6104 69.859 40.9524 70.0186 41.2969 70.1693C41.872 70.4227 42.4648 70.6443 43.0703 70.8432V76.9333C43.0703 77.6329 43.6374 78.2 44.3369 78.2H54.4703C55.1698 78.2 55.7369 77.6329 55.7369 76.9333V70.8356C56.6961 70.5224 57.6301 70.137 58.5312 69.6829L62.8379 73.9896C63.3322 74.4845 64.1343 74.485 64.6293 73.9906L64.6302 73.9896L71.7957 66.8241C72.2907 66.3298 72.2912 65.5276 71.7967 65.0327L71.7957 65.0317L67.4891 60.7251C67.941 59.8246 68.3241 58.8914 68.6354 57.9333H72.7331C73.4327 57.9333 73.9998 57.3662 73.9998 56.6667V46.5333C73.9998 45.8338 73.4327 45.2667 72.7331 45.2667ZM71.4665 55.4H67.6955C67.126 55.3998 66.6265 55.7797 66.4745 56.3285C66.0919 57.7261 65.5389 59.0711 64.8278 60.3337C64.5471 60.8291 64.6316 61.451 65.0343 61.8537L69.1117 65.9298L63.7359 71.3055L59.6598 67.2281C59.2572 66.8255 58.6352 66.7409 58.1398 67.0217C56.8773 67.7327 55.5322 68.2858 54.1346 68.6683C53.5858 68.8203 53.206 69.3199 53.2061 69.8894V75.6667H45.5998V69.8957C45.5998 69.3259 45.2193 68.8262 44.6701 68.6747C43.8632 68.452 43.073 68.1731 42.3052 67.8399C41.7449 67.5959 41.1978 67.3228 40.6661 67.0217C40.1707 66.7409 39.5488 66.8255 39.1461 67.2281L35.07 71.3055L29.6943 65.9298L33.7717 61.86C34.1743 61.4574 34.2589 60.8354 33.9781 60.34C33.2671 59.0774 32.714 57.7324 32.3315 56.3348C32.1812 55.7813 31.6777 55.3978 31.1041 55.4H25.3331V47.8H31.1041C31.6739 47.8 32.1736 47.4195 32.3251 46.8703C32.5476 46.0634 32.8266 45.2732 33.1599 44.5054C33.4039 43.9451 33.677 43.398 33.9781 42.8663C34.2589 42.3709 34.1743 41.749 33.7717 41.3463L29.6943 37.2702L35.07 31.8945L39.1461 35.9719C39.5488 36.3745 40.1707 36.4591 40.6661 36.1783C41.1978 35.8772 41.7449 35.6041 42.3052 35.3601C43.073 35.0268 43.8632 34.7478 44.6701 34.5253C45.2193 34.3738 45.5998 33.8741 45.5998 33.3043V27.5333H53.1998V33.3043C53.1996 33.8738 53.5795 34.3733 54.1283 34.5253C55.5259 34.9079 56.8711 35.4609 58.1335 36.172C58.6289 36.4527 59.2508 36.3682 59.6535 35.9655L63.7296 31.8881L69.1053 37.2639L65.0279 41.34C64.6253 41.7426 64.5407 42.3646 64.8215 42.86C65.5325 44.1226 66.0856 45.4676 66.4681 46.8652C66.6201 47.414 67.1197 47.7938 67.6892 47.7937H71.4665V55.4Z" fill="#00AA71"/>
<path d="M72.7331 45.2667H68.6354C68.3222 44.3075 67.9368 43.3735 67.4827 42.4724L71.7894 38.1657C72.2844 37.6714 72.2848 36.8693 71.7904 36.3743L71.7894 36.3734L64.6264 29.2079C64.1232 28.7332 63.3373 28.7332 62.8341 29.2079L58.5274 33.5145C57.6263 33.0614 56.6922 32.6768 55.7331 32.3644V26.2667C55.7331 25.5671 55.166 25 54.4665 25H44.3331C43.6336 25 43.0665 25.5671 43.0665 26.2667V32.3644C42.4623 32.562 41.8695 32.7875 41.2931 33.037C40.9486 33.1877 40.6066 33.3473 40.2709 33.5171L35.9643 29.2104C35.47 28.7154 34.6678 28.715 34.1729 29.2095L34.1719 29.2104L27.0064 36.3759C26.5115 36.8702 26.511 37.6724 27.0055 38.1673L27.0064 38.1683L31.3131 42.4749C31.1433 42.8106 30.9837 43.1526 30.833 43.4971C30.5797 44.0722 30.358 44.665 30.1591 45.2705H24.0665C23.367 45.2705 22.7998 45.8376 22.7998 46.5371V56.6705C22.7998 57.37 23.367 57.9371 24.0665 57.9371H30.1642C30.4774 58.8963 30.8628 59.8303 31.3169 60.7314L27.0102 65.0381C26.5153 65.5324 26.5148 66.3345 27.0093 66.8294L27.0102 66.8304L34.1757 73.9959C34.6789 74.4706 35.4649 74.4706 35.9681 73.9959L40.2747 69.6893C40.6104 69.859 40.9524 70.0186 41.2969 70.1693C41.872 70.4227 42.4648 70.6443 43.0703 70.8432V76.9333C43.0703 77.6329 43.6374 78.2 44.3369 78.2H54.4703C55.1698 78.2 55.7369 77.6329 55.7369 76.9333V70.8356C56.6961 70.5224 57.6301 70.137 58.5312 69.6829L62.8379 73.9896C63.3322 74.4845 64.1343 74.485 64.6293 73.9906L64.6302 73.9896L71.7957 66.8241C72.2907 66.3298 72.2912 65.5276 71.7967 65.0327L71.7957 65.0317L67.4891 60.7251C67.941 59.8246 68.3241 58.8914 68.6354 57.9333H72.7331C73.4327 57.9333 73.9998 57.3662 73.9998 56.6667V46.5333C73.9998 45.8338 73.4327 45.2667 72.7331 45.2667ZM71.4665 55.4H67.6955C67.126 55.3998 66.6265 55.7797 66.4745 56.3285C66.0919 57.7261 65.5389 59.0711 64.8278 60.3337C64.5471 60.8291 64.6316 61.451 65.0343 61.8537L69.1117 65.9298L63.7359 71.3055L59.6598 67.2281C59.2572 66.8255 58.6352 66.7409 58.1398 67.0217C56.8773 67.7327 55.5322 68.2858 54.1346 68.6683C53.5858 68.8203 53.206 69.3199 53.2061 69.8894V75.6667H45.5998V69.8957C45.5998 69.3259 45.2193 68.8262 44.6701 68.6747C43.8632 68.452 43.073 68.1731 42.3052 67.8399C41.7449 67.5959 41.1978 67.3228 40.6661 67.0217C40.1707 66.7409 39.5488 66.8255 39.1461 67.2281L35.07 71.3055L29.6943 65.9298L33.7717 61.86C34.1743 61.4574 34.2589 60.8354 33.9781 60.34C33.2671 59.0774 32.714 57.7324 32.3315 56.3348C32.1812 55.7813 31.6777 55.3978 31.1041 55.4H25.3331V47.8H31.1041C31.6739 47.8 32.1736 47.4195 32.3251 46.8703C32.5476 46.0634 32.8266 45.2732 33.1599 44.5054C33.4039 43.9451 33.677 43.398 33.9781 42.8663C34.2589 42.3709 34.1743 41.749 33.7717 41.3463L29.6943 37.2702L35.07 31.8945L39.1461 35.9719C39.5488 36.3745 40.1707 36.4591 40.6661 36.1783C41.1978 35.8772 41.7449 35.6041 42.3052 35.3601C43.073 35.0268 43.8632 34.7478 44.6701 34.5253C45.2193 34.3738 45.5998 33.8741 45.5998 33.3043V27.5333H53.1998V33.3043C53.1996 33.8738 53.5795 34.3733 54.1283 34.5253C55.5259 34.9079 56.8711 35.4609 58.1335 36.172C58.6289 36.4527 59.2508 36.3682 59.6535 35.9655L63.7296 31.8881L69.1053 37.2639L65.0279 41.34C64.6253 41.7426 64.5407 42.3646 64.8215 42.86C65.5325 44.1226 66.0856 45.4676 66.4681 46.8652C66.6201 47.414 67.1197 47.7938 67.6892 47.7937H71.4665V55.4Z" fill="url(#paint18_linear)"/>
<path d="M49.3998 45.2667C45.9021 45.2667 43.0665 48.1023 43.0665 51.6001C43.0665 55.0978 45.9021 57.9334 49.3998 57.9334C52.8975 57.9334 55.7331 55.0978 55.7331 51.6001C55.729 48.1041 52.896 45.2708 49.3998 45.2667ZM49.3998 55.4001C47.3011 55.4001 45.5998 53.6988 45.5998 51.6001C45.5998 49.5013 47.3011 47.8001 49.3998 47.8001C51.4985 47.8001 53.1998 49.5013 53.1998 51.6001C53.1998 53.6988 51.4985 55.4001 49.3998 55.4001Z" fill="#00AA71"/>
<path d="M49.3998 45.2667C45.9021 45.2667 43.0665 48.1023 43.0665 51.6001C43.0665 55.0978 45.9021 57.9334 49.3998 57.9334C52.8975 57.9334 55.7331 55.0978 55.7331 51.6001C55.729 48.1041 52.896 45.2708 49.3998 45.2667ZM49.3998 55.4001C47.3011 55.4001 45.5998 53.6988 45.5998 51.6001C45.5998 49.5013 47.3011 47.8001 49.3998 47.8001C51.4985 47.8001 53.1998 49.5013 53.1998 51.6001C53.1998 53.6988 51.4985 55.4001 49.3998 55.4001Z" fill="url(#paint19_linear)"/>
<path d="M49.3998 37.6666C41.7047 37.6666 35.4665 43.9048 35.4665 51.6C35.4665 59.2951 41.7047 65.5333 49.3998 65.5333C57.095 65.5333 63.3332 59.2951 63.3332 51.6C63.3241 43.9086 57.0912 37.6757 49.3998 37.6666ZM49.3998 63C43.1039 63 37.9998 57.8959 37.9998 51.6C37.9998 45.3038 43.1039 40.2 49.3998 40.2C55.6959 40.2 60.7998 45.3038 60.7998 51.6C60.7922 57.8928 55.6928 62.9924 49.3998 63Z" fill="#00AA71"/>
<path d="M49.3998 37.6666C41.7047 37.6666 35.4665 43.9048 35.4665 51.6C35.4665 59.2951 41.7047 65.5333 49.3998 65.5333C57.095 65.5333 63.3332 59.2951 63.3332 51.6C63.3241 43.9086 57.0912 37.6757 49.3998 37.6666ZM49.3998 63C43.1039 63 37.9998 57.8959 37.9998 51.6C37.9998 45.3038 43.1039 40.2 49.3998 40.2C55.6959 40.2 60.7998 45.3038 60.7998 51.6C60.7922 57.8928 55.6928 62.9924 49.3998 63Z" fill="url(#paint20_linear)"/>
<path d="M22.5 96.5H48.5V99.5H22.5V96.5Z" fill="#00AA71"/>
<path d="M22.5 96.5H48.5V99.5H22.5V96.5Z" fill="url(#paint21_linear)"/>
<defs>
<linearGradient id="paint0_linear" x1="59.5066" y1="5.8311" x2="68.4879" y2="28.6255" gradientUnits="userSpaceOnUse">
<stop stop-color="#00D461"/>
<stop offset="1" stop-color="#00AA70"/>
</linearGradient>
<linearGradient id="paint1_linear" x1="61.645" y1="11.2583" x2="66.3495" y2="23.1983" gradientUnits="userSpaceOnUse">
<stop stop-color="#00D461"/>
<stop offset="1" stop-color="#00AA70"/>
</linearGradient>
<linearGradient id="paint2_linear" x1="82.6675" y1="15.0007" x2="82.6675" y2="25.0006" gradientUnits="userSpaceOnUse">
<stop stop-color="#00D461"/>
<stop offset="1" stop-color="#00AA70"/>
</linearGradient>
<linearGradient id="paint3_linear" x1="96.0007" y1="15.0007" x2="96.0007" y2="25.0006" gradientUnits="userSpaceOnUse">
<stop stop-color="#00D461"/>
<stop offset="1" stop-color="#00AA70"/>
</linearGradient>
<linearGradient id="paint4_linear" x1="109.334" y1="15.0007" x2="109.334" y2="25.0006" gradientUnits="userSpaceOnUse">
<stop stop-color="#00D461"/>
<stop offset="1" stop-color="#00AA70"/>
</linearGradient>
<linearGradient id="paint5_linear" x1="82.6675" y1="28.3339" x2="82.6675" y2="38.3337" gradientUnits="userSpaceOnUse">
<stop stop-color="#00D461"/>
<stop offset="1" stop-color="#00AA70"/>
</linearGradient>
<linearGradient id="paint6_linear" x1="96.0007" y1="28.3339" x2="96.0007" y2="38.3337" gradientUnits="userSpaceOnUse">
<stop stop-color="#00D461"/>
<stop offset="1" stop-color="#00AA70"/>
</linearGradient>
<linearGradient id="paint7_linear" x1="109.334" y1="28.3339" x2="109.334" y2="38.3337" gradientUnits="userSpaceOnUse">
<stop stop-color="#00D461"/>
<stop offset="1" stop-color="#00AA70"/>
</linearGradient>
<linearGradient id="paint8_linear" x1="82.6675" y1="41.667" x2="82.6675" y2="51.6668" gradientUnits="userSpaceOnUse">
<stop stop-color="#00D461"/>
<stop offset="1" stop-color="#00AA70"/>
</linearGradient>
<linearGradient id="paint9_linear" x1="96.0007" y1="41.667" x2="96.0007" y2="51.6668" gradientUnits="userSpaceOnUse">
<stop stop-color="#00D461"/>
<stop offset="1" stop-color="#00AA70"/>
</linearGradient>
<linearGradient id="paint10_linear" x1="109.334" y1="41.667" x2="109.334" y2="51.6668" gradientUnits="userSpaceOnUse">
<stop stop-color="#00D461"/>
<stop offset="1" stop-color="#00AA70"/>
</linearGradient>
<linearGradient id="paint11_linear" x1="82.6675" y1="55.0001" x2="82.6675" y2="65" gradientUnits="userSpaceOnUse">
<stop stop-color="#00D461"/>
<stop offset="1" stop-color="#00AA70"/>
</linearGradient>
<linearGradient id="paint12_linear" x1="96.0007" y1="55.0001" x2="96.0007" y2="65" gradientUnits="userSpaceOnUse">
<stop stop-color="#00D461"/>
<stop offset="1" stop-color="#00AA70"/>
</linearGradient>
<linearGradient id="paint13_linear" x1="109.334" y1="55.0001" x2="109.334" y2="65" gradientUnits="userSpaceOnUse">
<stop stop-color="#00D461"/>
<stop offset="1" stop-color="#00AA70"/>
</linearGradient>
<linearGradient id="paint14_linear" x1="82.6675" y1="68.3333" x2="82.6675" y2="78.3331" gradientUnits="userSpaceOnUse">
<stop stop-color="#00D461"/>
<stop offset="1" stop-color="#00AA70"/>
</linearGradient>
<linearGradient id="paint15_linear" x1="96.0007" y1="68.3333" x2="96.0007" y2="78.3331" gradientUnits="userSpaceOnUse">
<stop stop-color="#00D461"/>
<stop offset="1" stop-color="#00AA70"/>
</linearGradient>
<linearGradient id="paint16_linear" x1="109.334" y1="68.3333" x2="109.334" y2="78.3331" gradientUnits="userSpaceOnUse">
<stop stop-color="#00D461"/>
<stop offset="1" stop-color="#00AA70"/>
</linearGradient>
<linearGradient id="paint17_linear" x1="96.0001" y1="0.000732422" x2="96.0001" y2="99.9991" gradientUnits="userSpaceOnUse">
<stop stop-color="#00D461"/>
<stop offset="1" stop-color="#00AA70"/>
</linearGradient>
<linearGradient id="paint18_linear" x1="48.3998" y1="25" x2="48.3998" y2="78.2" gradientUnits="userSpaceOnUse">
<stop stop-color="#00D461"/>
<stop offset="1" stop-color="#00AA70"/>
</linearGradient>
<linearGradient id="paint19_linear" x1="49.3998" y1="45.2667" x2="49.3998" y2="57.9334" gradientUnits="userSpaceOnUse">
<stop stop-color="#00D461"/>
<stop offset="1" stop-color="#00AA70"/>
</linearGradient>
<linearGradient id="paint20_linear" x1="49.3998" y1="37.6666" x2="49.3998" y2="65.5333" gradientUnits="userSpaceOnUse">
<stop stop-color="#00D461"/>
<stop offset="1" stop-color="#00AA70"/>
</linearGradient>
<linearGradient id="paint21_linear" x1="35.5" y1="96.5" x2="35.5" y2="99.5" gradientUnits="userSpaceOnUse">
<stop stop-color="#00D461"/>
<stop offset="1" stop-color="#00AA70"/>
</linearGradient>
<clipPath id="clip0">
<rect width="35" height="35" fill="white" transform="translate(38.3404 14.1709) rotate(-21.5052)"/>
</clipPath>
</defs>
</svg>
