<svg width="55" height="55" viewBox="0 0 55 55" fill="none" xmlns="http://www.w3.org/2000/svg">
<g clip-path="url(#clip0)">
<path d="M50.6009 14.2083H42.7873L39.1206 5.04166H15.8794L12.2128 14.2083H11V9.62499H5.5V14.2083H4.39908C1.97267 14.2083 0 16.181 0 18.6074V45.5281C0 47.971 1.98733 49.9583 4.43025 49.9583H50.5698C53.0127 49.9583 55 47.971 55 45.5281V18.6074C55 16.181 53.0273 14.2083 50.6009 14.2083ZM7.33333 11.4583H9.16667V14.2083H7.33333V11.4583ZM53.1667 45.5281C53.1667 46.9608 52.0016 48.125 50.5698 48.125H4.43025C2.99842 48.125 1.83333 46.9599 1.83333 45.5281V18.6074C1.83333 17.193 2.98467 16.0417 4.39908 16.0417H5.5H11H13.4539L17.1206 6.87499H37.8794L41.5461 16.0417H50.6009C52.0153 16.0417 53.1667 17.193 53.1667 18.6074V45.5281Z" fill="#00AA71"/>
<path d="M27.5 13.2917C18.4021 13.2917 11 20.6937 11 29.7917C11 38.8896 18.4021 46.2917 27.5 46.2917C36.5979 46.2917 44 38.8896 44 29.7917C44 20.6937 36.5979 13.2917 27.5 13.2917ZM27.5 44.4583C19.4132 44.4583 12.8333 37.8785 12.8333 29.7917C12.8333 21.7048 19.4132 15.125 27.5 15.125C35.5868 15.125 42.1667 21.7048 42.1667 29.7917C42.1667 37.8785 35.5868 44.4583 27.5 44.4583Z" fill="#00AA71"/>
<path d="M27.5 18.7917C21.4344 18.7917 16.5 23.7261 16.5 29.7917C16.5 35.8572 21.4344 40.7917 27.5 40.7917C33.5656 40.7917 38.5 35.8572 38.5 29.7917C38.5 23.7261 33.5656 18.7917 27.5 18.7917ZM27.5 38.9583C22.4455 38.9583 18.3333 34.8462 18.3333 29.7917C18.3333 24.7372 22.4455 20.625 27.5 20.625C32.5545 20.625 36.6667 24.7372 36.6667 29.7917C36.6667 34.8462 32.5545 38.9583 27.5 38.9583Z" fill="#00AA71"/>
<path d="M47.6667 17.875C45.6445 17.875 44 19.5195 44 21.5417C44 23.5638 45.6445 25.2083 47.6667 25.2083C49.6888 25.2083 51.3333 23.5638 51.3333 21.5417C51.3333 19.5195 49.6888 17.875 47.6667 17.875ZM47.6667 23.375C46.6556 23.375 45.8333 22.5528 45.8333 21.5417C45.8333 20.5306 46.6556 19.7083 47.6667 19.7083C48.6777 19.7083 49.5 20.5306 49.5 21.5417C49.5 22.5528 48.6777 23.375 47.6667 23.375Z" fill="#00AA71"/>
<rect x="-35.25" y="-39.8333" width="145.667" height="122.75" rx="2.5" stroke="#00AA71"/>
</g>
<defs>
<clipPath id="clip0">
<rect width="55" height="55" fill="white"/>
</clipPath>
</defs>
</svg>
