<svg width="28" height="30" viewBox="0 0 28 30" fill="none" xmlns="http://www.w3.org/2000/svg">
<path d="M5.87099 5.94906C10.3001 1.94261 16.9285 1.88135 21.4189 5.53861L17.8597 5.67339C17.4002 5.69176 17.0449 6.07158 17.0633 6.53103C17.0817 6.97824 17.4492 7.32742 17.8903 7.32742C17.9026 7.32742 17.9087 7.32742 17.921 7.32742L23.3854 7.12526C23.8326 7.10688 24.1818 6.74545 24.1818 6.29824V6.23698C24.1818 6.22473 24.1818 6.2186 24.1818 6.20635V6.20023L23.9796 0.79704C23.9613 0.337585 23.5753 -0.0177268 23.122 0.000651429C22.6625 0.0190296 22.3072 0.398845 22.3256 0.8583L22.4542 4.24601C20.2305 2.42657 17.4921 1.37289 14.5639 1.22586C10.9372 1.04208 7.45152 2.28567 4.76217 4.72385C1.06203 8.0748 -0.506239 13.1717 0.669965 18.0235C0.761856 18.4033 1.09879 18.6545 1.47248 18.6545C1.53987 18.6545 1.60113 18.6484 1.66851 18.63C2.10959 18.5197 2.38526 18.0725 2.27499 17.6315C1.24581 13.3677 2.61805 8.88957 5.87099 5.94906Z" fill="#00AA71"/>
<path d="M27.3305 11.9771C27.2202 11.536 26.773 11.2603 26.3319 11.3706C25.8909 11.4809 25.6152 11.9281 25.7255 12.3691C26.7608 16.6329 25.3824 21.111 22.1295 24.0515C19.8444 26.116 16.9775 27.1329 14.1227 27.1329C11.3966 27.1329 8.67664 26.2079 6.48351 24.3823L10.0856 24.0577C10.539 24.0148 10.8759 23.6166 10.833 23.1571C10.7901 22.6977 10.3919 22.3669 9.93248 22.4097L4.48641 22.8998C4.03308 22.9427 3.69615 23.3409 3.73903 23.8004L4.22912 29.2464C4.26587 29.6752 4.62731 29.9999 5.05001 29.9999C5.07451 29.9999 5.09902 29.9999 5.12352 29.9938C5.57685 29.9509 5.91378 29.5527 5.8709 29.0933L5.57685 25.7791C7.80061 27.5801 10.5267 28.6277 13.4366 28.7747C13.6694 28.787 13.9022 28.7931 14.1288 28.7931C17.5043 28.7931 20.7143 27.5556 23.2383 25.2767C26.9384 21.9258 28.5067 16.835 27.3305 11.9771Z" fill="#00AA71"/>
</svg>
