<svg width="12" height="10" viewBox="0 0 12 10" fill="none" xmlns="http://www.w3.org/2000/svg">
<path d="M10.4727 2.37109C10.4727 2.48047 10.4727 2.58073 10.4727 2.67188C10.4727 3.49219 10.3177 4.30339 10.0078 5.10547C9.71615 5.88932 9.28776 6.60938 8.72266 7.26562C8.17578 7.92188 7.45573 8.45964 6.5625 8.87891C5.6875 9.27995 4.72135 9.48047 3.66406 9.48047C2.33333 9.48047 1.11198 9.125 0 8.41406C0.182292 8.43229 0.373698 8.44141 0.574219 8.44141C1.6862 8.44141 2.67969 8.10417 3.55469 7.42969C3.02604 7.41146 2.55208 7.2474 2.13281 6.9375C1.73177 6.6276 1.45833 6.23568 1.3125 5.76172C1.45833 5.79818 1.60417 5.81641 1.75 5.81641C1.96875 5.81641 2.17839 5.77995 2.37891 5.70703C1.83203 5.59766 1.3763 5.32422 1.01172 4.88672C0.647135 4.44922 0.464844 3.94792 0.464844 3.38281C0.464844 3.36458 0.464844 3.35547 0.464844 3.35547C0.811198 3.53776 1.17578 3.63802 1.55859 3.65625C0.847656 3.16406 0.492188 2.4987 0.492188 1.66016C0.492188 1.22266 0.601562 0.821615 0.820312 0.457031C1.42188 1.1862 2.14193 1.76953 2.98047 2.20703C3.83724 2.64453 4.75781 2.89062 5.74219 2.94531C5.70573 2.76302 5.6875 2.58073 5.6875 2.39844C5.6875 1.74219 5.91536 1.1862 6.37109 0.730469C6.84505 0.25651 7.41016 0.0195312 8.06641 0.0195312C8.75911 0.0195312 9.34245 0.265625 9.81641 0.757812C10.3633 0.648438 10.8737 0.457031 11.3477 0.183594C11.1654 0.748698 10.8099 1.1862 10.2812 1.49609C10.7734 1.44141 11.2383 1.32292 11.6758 1.14062C11.3477 1.61458 10.9466 2.02474 10.4727 2.37109Z" fill="#1E1E1E" fill-opacity="0.6"/>
</svg>
