<svg width="42" height="42" viewBox="0 0 42 42" fill="none" xmlns="http://www.w3.org/2000/svg">
<path d="M31.586 21.8C32.03 21.356 32.03 20.657 31.586 20.213C31.157 19.769 30.443 19.769 30.015 20.213L21.968 28.245V1.70598C21.968 1.08698 21.476 0.578979 20.857 0.578979C20.238 0.578979 19.73 1.08698 19.73 1.70598V28.245L11.699 20.213C11.255 19.769 10.54 19.769 10.112 20.213C9.668 20.657 9.668 21.356 10.112 21.8L20.064 31.752C20.493 32.181 21.207 32.181 21.651 31.752L31.586 21.8ZM39.474 29.086C39.474 28.467 39.966 27.975 40.585 27.975C41.204 27.975 41.712 28.467 41.712 29.086V40.006C41.712 40.625 41.204 41.133 40.585 41.133H1.111C0.492 41.133 0 40.625 0 40.006V29.086C0 28.467 0.492 27.975 1.111 27.975C1.73 27.975 2.238 28.467 2.238 29.086V38.895H39.474V29.086Z" fill="#01B97B"/>
</svg>
