<svg width="10" height="10" viewBox="0 0 10 10" fill="none" xmlns="http://www.w3.org/2000/svg">
<path d="M6.31641 4.06641C5.86068 4.52214 5.30469 4.75 4.64844 4.75C4.01042 4.75 3.46354 4.52214 3.00781 4.06641C2.55208 3.61068 2.32422 3.0638 2.32422 2.42578C2.32422 1.76953 2.55208 1.21354 3.00781 0.757812C3.46354 0.302083 4.01042 0.0742188 4.64844 0.0742188C5.30469 0.0742188 5.86068 0.302083 6.31641 0.757812C6.77214 1.21354 7 1.76953 7 2.42578C7 3.0638 6.77214 3.61068 6.31641 4.06641ZM2.76172 6.17188C3.45443 6.00781 4.08333 5.92578 4.64844 5.92578C5.23177 5.92578 5.86979 6.00781 6.5625 6.17188C7.25521 6.33594 7.88411 6.60938 8.44922 6.99219C9.03255 7.35677 9.32422 7.77604 9.32422 8.25V9.42578H0V8.25C0 7.77604 0.282552 7.35677 0.847656 6.99219C1.43099 6.60938 2.06901 6.33594 2.76172 6.17188Z" fill="#1E1E1E" fill-opacity="0.7"/>
</svg>
