<svg width="16" height="9" viewBox="0 0 16 9" fill="none" xmlns="http://www.w3.org/2000/svg">
<path d="M14.9844 0.824219C15.112 1.15234 14.7201 1.91797 13.8086 3.12109C13.681 3.28516 13.5169 3.50391 13.3164 3.77734C12.8971 4.28776 12.6602 4.625 12.6055 4.78906C12.5143 5.00781 12.5508 5.21745 12.7148 5.41797C12.806 5.52734 13.0156 5.74609 13.3438 6.07422H13.3711V6.10156C14.1185 6.77604 14.6198 7.35026 14.875 7.82422C14.8932 7.86068 14.9115 7.89714 14.9297 7.93359C14.9479 7.97005 14.9661 8.04297 14.9844 8.15234C15.0026 8.24349 15.0026 8.32552 14.9844 8.39844C14.9661 8.47135 14.9023 8.54427 14.793 8.61719C14.6836 8.67188 14.5286 8.69922 14.3281 8.69922L12.332 8.75391C12.2044 8.77214 12.0495 8.75391 11.8672 8.69922C11.7031 8.64453 11.5755 8.58984 11.4844 8.53516L11.3203 8.42578C11.1562 8.31641 10.974 8.15234 10.7734 7.93359C10.5729 7.71484 10.3906 7.51432 10.2266 7.33203C10.0807 7.14974 9.92578 7.00391 9.76172 6.89453C9.59766 6.76693 9.45182 6.72135 9.32422 6.75781C9.30599 6.75781 9.27865 6.76693 9.24219 6.78516C9.22396 6.80339 9.17839 6.84896 9.10547 6.92188C9.05078 6.97656 8.99609 7.04948 8.94141 7.14062C8.90495 7.23177 8.86849 7.36849 8.83203 7.55078C8.79557 7.71484 8.77734 7.91536 8.77734 8.15234C8.77734 8.22526 8.76823 8.29818 8.75 8.37109C8.73177 8.42578 8.71354 8.47135 8.69531 8.50781L8.66797 8.53516C8.55859 8.64453 8.41276 8.69922 8.23047 8.69922H7.35547C6.97266 8.73568 6.58073 8.69922 6.17969 8.58984C5.79688 8.48047 5.45964 8.34375 5.16797 8.17969C4.8763 7.9974 4.61198 7.82422 4.375 7.66016C4.13802 7.47786 3.95573 7.32292 3.82812 7.19531L3.63672 7.00391C3.58203 6.96745 3.50911 6.89453 3.41797 6.78516C3.32682 6.67578 3.13542 6.4388 2.84375 6.07422C2.57031 5.70964 2.29688 5.31771 2.02344 4.89844C1.75 4.47917 1.43099 3.93229 1.06641 3.25781C0.701823 2.5651 0.364583 1.85417 0.0546875 1.125C0.0182292 1.03385 0 0.960938 0 0.90625C0 0.851562 0.00911458 0.80599 0.0273438 0.769531L0.0546875 0.742188C0.127604 0.632812 0.273438 0.578125 0.492188 0.578125H2.65234C2.70703 0.578125 2.76172 0.596354 2.81641 0.632812C2.87109 0.651042 2.91667 0.669271 2.95312 0.6875L2.98047 0.714844C3.07161 0.769531 3.13542 0.851562 3.17188 0.960938C3.28125 1.21615 3.39974 1.48958 3.52734 1.78125C3.67318 2.05469 3.78255 2.26432 3.85547 2.41016L3.96484 2.62891C4.12891 2.9388 4.27474 3.21224 4.40234 3.44922C4.54818 3.66797 4.67578 3.84115 4.78516 3.96875C4.89453 4.09635 5.00391 4.19661 5.11328 4.26953C5.22266 4.34245 5.3138 4.37891 5.38672 4.37891C5.45964 4.37891 5.53255 4.36979 5.60547 4.35156C5.60547 4.35156 5.61458 4.34245 5.63281 4.32422C5.65104 4.28776 5.67839 4.22396 5.71484 4.13281C5.76953 4.04167 5.80599 3.92318 5.82422 3.77734C5.86068 3.63151 5.88802 3.42188 5.90625 3.14844C5.92448 2.875 5.92448 2.54688 5.90625 2.16406C5.88802 1.96354 5.86068 1.78125 5.82422 1.61719C5.78776 1.4349 5.7513 1.30729 5.71484 1.23438L5.6875 1.15234C5.5599 0.970052 5.33203 0.851562 5.00391 0.796875C4.94922 0.796875 4.96745 0.733073 5.05859 0.605469C5.14974 0.514323 5.25 0.441406 5.35938 0.386719C5.63281 0.240885 6.2526 0.177083 7.21875 0.195312C7.63802 0.195312 7.99349 0.231771 8.28516 0.304688C8.3763 0.322917 8.45833 0.359375 8.53125 0.414062C8.60417 0.450521 8.65885 0.514323 8.69531 0.605469C8.73177 0.678385 8.75911 0.760417 8.77734 0.851562C8.79557 0.924479 8.80469 1.04297 8.80469 1.20703C8.80469 1.35286 8.80469 1.48958 8.80469 1.61719C8.78646 1.76302 8.77734 1.94531 8.77734 2.16406C8.77734 2.40104 8.77734 2.61979 8.77734 2.82031C8.77734 2.875 8.76823 2.98438 8.75 3.14844C8.75 3.3125 8.75 3.4401 8.75 3.53125C8.75 3.6224 8.75911 3.73177 8.77734 3.85938C8.79557 3.96875 8.82292 4.06901 8.85938 4.16016C8.91406 4.23307 8.97786 4.28776 9.05078 4.32422C9.08724 4.34245 9.1237 4.36068 9.16016 4.37891C9.21484 4.37891 9.28776 4.35156 9.37891 4.29688C9.47005 4.22396 9.57031 4.13281 9.67969 4.02344C9.78906 3.89583 9.92578 3.71354 10.0898 3.47656C10.2539 3.23958 10.4271 2.96615 10.6094 2.65625C10.9193 2.10938 11.2018 1.51693 11.457 0.878906C11.4753 0.842448 11.4935 0.80599 11.5117 0.769531C11.5482 0.714844 11.5846 0.678385 11.6211 0.660156H11.6484L11.6758 0.632812L11.7852 0.605469H11.9492L14.1914 0.578125C14.3919 0.559896 14.556 0.56901 14.6836 0.605469C14.8294 0.641927 14.9115 0.6875 14.9297 0.742188L14.9844 0.824219Z" fill="#1E1E1E" fill-opacity="0.6"/>
</svg>
